<svg version="1.1" id="Layer_1" xmlns="http://www.w3.org/2000/svg" xmlns:xlink="http://www.w3.org/1999/xlink" x="0px" y="0px"
	 width="100%" viewBox="0 0 1024 608" enable-background="new 0 0 1024 608" xml:space="preserve">
<path fill="#000000" opacity="1.000000" stroke="none" 
	d="
M296.744263,292.991699 
	C298.988403,263.973633 306.311920,236.793030 319.469879,211.360321 
	C339.549042,172.549820 368.834503,142.534042 407.267609,121.684479 
	C434.267059,107.037529 463.144592,98.593239 493.880432,96.635262 
	C545.056458,93.375153 591.681396,106.551346 633.064331,136.618088 
	C679.214050,170.148132 707.622681,215.429504 717.252258,271.708160 
	C728.291321,336.224670 712.225220,394.164307 670.633728,444.342682 
	C638.829834,482.712708 597.602600,506.537231 548.544617,515.987854 
	C496.380859,526.036804 446.837463,517.766174 401.243927,490.783264 
	C352.984985,462.222992 320.382599,420.726166 304.608307,366.479218 
	C297.658752,342.579926 294.866119,318.285645 296.744263,292.991699 
M554.619934,510.017914 
	C594.170410,500.960938 628.536011,482.137115 656.560486,452.983276 
	C701.470215,406.263702 721.026062,350.217621 714.720337,285.507385 
	C711.437195,251.815826 700.315857,220.522797 680.826660,193.137253 
	C630.278870,122.109245 561.004822,91.936493 474.544922,103.555641 
	C433.630463,109.054047 397.628265,127.091049 367.810608,155.385513 
	C314.840485,205.649704 292.657318,267.802795 303.708618,340.128784 
	C313.398590,403.545502 347.018005,452.048553 401.794281,485.636902 
	C428.515137,502.021912 457.719482,511.483582 488.783966,514.434509 
	C510.555634,516.502625 532.371399,515.359131 554.619934,510.017914 
z"/>
<path fill="#000000" opacity="1.000000" stroke="none" 
	d="
M744.608643,229.557861 
	C748.141418,228.430664 751.287964,227.393051 754.450989,226.408051 
	C756.035828,225.914490 757.557190,226.059143 758.102661,227.878860 
	C758.618835,229.600937 757.194214,230.219818 755.921814,230.636139 
	C745.525024,234.038086 735.117371,237.406921 724.705811,240.763535 
	C723.126831,241.272583 721.576416,241.173767 721.147034,239.255737 
	C720.775208,237.594742 722.151245,236.966949 723.453247,236.534088 
	C730.374390,234.233124 737.303162,231.955109 744.608643,229.557861 
z"/>
<path fill="#000000" opacity="1.000000" stroke="none" 
	d="
M309.948090,425.068420 
	C301.854279,429.717438 294.077454,434.195282 286.283600,438.643311 
	C284.729919,439.530029 282.859650,440.997101 281.527588,438.750946 
	C280.153259,436.433594 282.505432,435.551086 283.975220,434.687012 
	C292.428619,429.717102 300.906128,424.786194 309.446411,419.967712 
	C311.133270,419.015991 313.394806,416.722321 314.983459,419.544250 
	C316.364807,421.997986 313.405670,422.693176 311.968658,423.863678 
	C311.459045,424.278717 310.832336,424.549927 309.948090,425.068420 
z"/>
<path fill="#000000" opacity="1.000000" stroke="none" 
	d="
M661.043701,520.145386 
	C659.045044,519.829895 658.211548,518.529602 657.345337,517.336914 
	C651.597595,509.422668 645.851501,501.506744 640.185730,493.533905 
	C639.193970,492.138428 637.487671,490.367554 639.525146,488.759094 
	C641.619690,487.105621 642.867249,489.190247 643.879150,490.598053 
	C649.776855,498.803497 655.626099,507.044556 661.398254,515.338623 
	C662.398499,516.775879 664.573669,518.528137 661.043701,520.145386 
z"/>
<path fill="#000000" opacity="1.000000" stroke="none" 
	d="
M366.914734,505.881531 
	C363.823700,510.222656 360.949615,514.278931 358.045563,518.313660 
	C357.145081,519.564697 356.031403,520.856567 354.373383,519.778320 
	C352.554016,518.595276 353.070312,517.035217 354.176575,515.507324 
	C360.102905,507.322174 365.953857,499.081848 371.949554,490.948059 
	C372.986725,489.541046 374.033844,486.768158 376.472839,488.642975 
	C378.401764,490.125702 376.777588,491.999359 375.773010,493.448669 
	C372.942352,497.532410 370.011475,501.546692 366.914734,505.881531 
z"/>
<path fill="#000000" opacity="1.000000" stroke="none" 
	d="
M563.966064,558.311279 
	C564.123779,560.620972 565.241943,563.297302 562.643372,563.833374 
	C559.945129,564.389954 559.915649,561.583679 559.513062,559.704956 
	C557.499451,550.308716 555.498779,540.909729 553.531921,531.503662 
	C553.132874,529.595154 552.290649,527.029114 554.976990,526.518799 
	C557.728516,525.996094 557.734497,528.854675 558.128784,530.667908 
	C560.098999,539.728516 561.960815,548.812683 563.966064,558.311279 
z"/>
<path fill="#000000" opacity="1.000000" stroke="none" 
	d="
M320.287811,142.728912 
	C318.085968,140.680481 316.109283,138.908188 314.211884,137.054749 
	C313.241760,136.107101 312.325928,134.919983 313.445465,133.589462 
	C314.509644,132.324738 315.934082,132.669800 316.993042,133.610550 
	C325.174774,140.878738 333.320282,148.187881 341.442139,155.522964 
	C342.549347,156.522903 342.936188,157.879089 341.592377,158.952240 
	C340.113708,160.133057 338.772369,159.249893 337.607910,158.213135 
	C331.912109,153.142029 326.231689,148.053696 320.287811,142.728912 
z"/>
<path fill="#000000" opacity="1.000000" stroke="none" 
	d="
M733.175903,435.837830 
	C734.778870,436.995636 735.893799,438.158203 734.511536,439.703552 
	C733.473938,440.863586 732.024353,440.450012 730.827087,439.755981 
	C721.636292,434.428314 712.457947,429.079163 703.292908,423.707245 
	C701.986938,422.941772 700.495789,421.924805 701.368347,420.198944 
	C702.497253,417.966064 704.308105,419.268951 705.644409,420.025879 
	C714.745972,425.181610 723.793518,430.432861 733.175903,435.837830 
z"/>
<path fill="#000000" opacity="1.000000" stroke="none" 
	d="
M407.729553,87.122894 
	C405.743195,82.495338 403.814423,78.255661 402.064056,73.943535 
	C401.469269,72.478256 400.566650,70.477425 402.616699,69.540901 
	C404.747253,68.567589 405.515045,70.635208 406.164520,72.081238 
	C410.320068,81.333763 414.407745,90.616928 418.477112,99.907837 
	C419.128693,101.395432 420.177673,103.306694 418.120911,104.281807 
	C415.815887,105.374619 414.891907,103.249565 414.138977,101.613930 
	C411.983643,96.931656 409.942841,92.196671 407.729553,87.122894 
z"/>
<path fill="#000000" opacity="1.000000" stroke="none" 
	d="
M676.518921,159.540359 
	C672.579285,159.575348 672.629883,157.619125 674.660400,155.723618 
	C682.547852,148.360641 690.599976,141.173370 698.640503,133.976074 
	C699.766602,132.968048 701.318848,132.099777 702.559998,133.701050 
	C703.789185,135.286865 702.478821,136.507675 701.368591,137.502731 
	C693.207947,144.816376 685.017334,152.096588 676.518921,159.540359 
z"/>
<path fill="#000000" opacity="1.000000" stroke="none" 
	d="
M463.567902,529.840942 
	C461.367035,540.267761 459.282593,550.321167 457.095947,560.352234 
	C456.758362,561.900818 456.329041,564.038330 454.214081,563.785400 
	C451.827484,563.499939 452.390259,561.325806 452.699799,559.787109 
	C454.724762,549.721375 456.833923,539.672485 458.942780,529.623779 
	C459.254303,528.139343 459.714813,526.444397 461.499695,526.363159 
	C463.441345,526.274780 463.931274,527.725525 463.567902,529.840942 
z"/>
<path fill="#000000" opacity="1.000000" stroke="none" 
	d="
M609.439209,76.499268 
	C611.219238,73.844292 610.924866,68.300903 614.933289,70.112968 
	C618.080933,71.535927 614.671814,75.341644 613.583557,77.874985 
	C610.242432,85.652451 606.737610,93.360939 603.190552,101.047386 
	C602.484985,102.576385 601.899719,105.198570 599.558472,104.238724 
	C596.759338,103.091148 598.595032,100.771736 599.309326,99.129547 
	C602.555237,91.666718 605.955383,84.270966 609.439209,76.499268 
z"/>
<path fill="#000000" opacity="1.000000" stroke="none" 
	d="
M275.695618,330.654694 
	C278.607361,330.340912 281.060394,329.963593 283.527771,329.793610 
	C284.908966,329.698425 286.282257,330.108429 286.364655,331.849609 
	C286.447876,333.607208 285.081818,334.029633 283.715302,334.174469 
	C276.810944,334.906128 269.901703,335.592010 262.993103,336.283417 
	C259.377045,336.645294 255.763870,337.064209 252.139114,337.298553 
	C250.610962,337.397339 248.347855,338.032562 248.125214,335.667664 
	C247.887375,333.141174 250.276413,333.063995 252.011871,332.884949 
	C259.749146,332.086884 267.498138,331.402985 275.695618,330.654694 
z"/>
<path fill="#000000" opacity="1.000000" stroke="none" 
	d="
M277.343079,230.541046 
	C284.159210,233.138885 291.299988,234.036346 297.201538,238.355377 
	C295.103516,241.340149 293.101715,240.351105 291.305389,239.783783 
	C282.125702,236.884613 272.956757,233.948929 263.823944,230.906296 
	C262.095551,230.330475 259.266510,229.946274 260.302917,227.176651 
	C261.202240,224.773315 263.460480,226.191193 265.090088,226.671204 
	C269.069641,227.843430 273.004517,229.167542 277.343079,230.541046 
z"/>
<path fill="#000000" opacity="1.000000" stroke="none" 
	d="
M755.185181,331.894653 
	C758.905945,332.285645 762.203491,332.600006 765.484680,333.036804 
	C766.869995,333.221222 768.111023,333.862762 768.003540,335.549255 
	C767.883850,337.427185 766.384705,337.467804 765.057068,337.340149 
	C754.354065,336.311218 743.653748,335.252899 732.959717,334.135345 
	C731.397217,333.972076 729.817261,333.172760 730.238220,331.319305 
	C730.661316,329.455994 732.560791,329.672729 733.996887,329.804016 
	C740.921387,330.436951 747.836670,331.169983 755.185181,331.894653 
z"/>
<path fill="#000000" opacity="1.000000" stroke="none" 
	d="
M641.947510,507.087311 
	C644.789185,511.415253 647.451416,515.431702 650.025635,519.503723 
	C650.723633,520.607849 651.504456,521.984436 650.064331,523.062988 
	C648.541748,524.203186 647.099670,523.472717 646.204956,522.134766 
	C640.942200,514.264221 635.750977,506.345642 630.567139,498.422668 
	C629.690186,497.082336 629.232483,495.501099 630.872070,494.487305 
	C632.560730,493.443268 633.642334,494.753113 634.513977,496.039581 
	C636.936340,499.614899 639.329956,503.209656 641.947510,507.087311 
z"/>
<path fill="#000000" opacity="1.000000" stroke="none" 
	d="
M510.902649,82.370361 
	C510.354095,83.930458 509.718231,85.088112 508.351440,84.834320 
	C506.652985,84.518951 506.707916,82.940659 506.704987,81.624557 
	C506.681763,71.141037 506.672943,60.657372 506.713318,50.173958 
	C506.718964,48.706955 506.714386,46.863834 508.936493,47.084793 
	C510.863800,47.276440 511.068237,48.962391 511.079468,50.491829 
	C511.127167,56.981327 511.138458,63.471272 511.125122,69.960976 
	C511.116913,73.953545 511.040283,77.945976 510.902649,82.370361 
z"/>
<path fill="#000000" opacity="1.000000" stroke="none" 
	d="
M383.737335,494.779053 
	C387.262543,494.101044 387.776276,495.948395 386.434662,498.077148 
	C381.288696,506.242584 375.914429,514.264709 370.581635,522.311279 
	C369.786499,523.511108 368.554535,524.265442 367.175140,523.293884 
	C365.228668,521.922974 366.299225,520.314209 367.219360,518.941650 
	C372.591949,510.927368 378.018768,502.949463 383.737335,494.779053 
z"/>
<path fill="#000000" opacity="1.000000" stroke="none" 
	d="
M309.117920,438.163055 
	C304.355774,441.227844 299.916809,444.128540 295.430756,446.954468 
	C294.154480,447.758453 292.620300,448.534332 291.494904,446.821594 
	C290.388611,445.137909 291.599701,443.988068 292.893768,443.149170 
	C300.680267,438.101562 308.492889,433.094238 316.308777,428.092133 
	C317.621460,427.252106 319.156006,426.547119 320.291138,428.122375 
	C321.711884,430.093933 319.955536,431.179474 318.632019,432.077026 
	C315.616821,434.121765 312.499207,436.015503 309.117920,438.163055 
z"/>
<path fill="#000000" opacity="1.000000" stroke="none" 
	d="
M616.269226,89.304855 
	C617.954834,86.010170 619.429260,83.025436 620.993042,80.088242 
	C621.561340,79.020813 622.447571,78.135254 623.815002,78.676933 
	C625.413452,79.310112 625.568115,80.764175 624.950928,82.017273 
	C620.687622,90.673279 616.355713,99.296082 611.953796,107.882378 
	C611.310181,109.137901 609.943604,109.880577 608.591248,108.913513 
	C607.254883,107.957863 607.730164,106.502579 608.324951,105.286789 
	C610.884766,100.054520 613.499023,94.848923 616.269226,89.304855 
z"/>
<path fill="#000000" opacity="1.000000" stroke="none" 
	d="
M354.970703,502.975281 
	C353.231201,505.013916 351.778198,506.833984 350.163696,508.497314 
	C349.286133,509.401398 348.009521,509.571899 347.002136,508.693359 
	C345.912659,507.743225 346.270538,506.554626 347.048615,505.568939 
	C353.018585,498.005951 359.009674,490.459656 365.004547,482.916382 
	C365.923981,481.759399 367.235535,481.058502 368.476837,481.994476 
	C370.288330,483.360443 369.291107,485.024017 368.253754,486.342804 
	C363.941010,491.825256 359.551300,497.247192 354.970703,502.975281 
z"/>
<path fill="#000000" opacity="1.000000" stroke="none" 
	d="
M565.047241,533.875244 
	C564.444946,531.214417 563.907104,528.952148 563.496460,526.667053 
	C563.279114,525.457397 563.474060,524.249634 564.950195,523.935547 
	C566.327271,523.642517 567.262024,524.440430 567.588928,525.659973 
	C570.124573,535.119873 572.616516,544.591736 575.065125,554.074585 
	C575.377319,555.283875 575.019531,556.567444 573.659729,556.882324 
	C571.442078,557.395813 570.739807,555.630371 570.306458,554.035278 
	C568.695496,548.105591 567.210510,542.141663 565.676880,536.190979 
	C565.510986,535.547485 565.335571,534.906555 565.047241,533.875244 
z"/>
<path fill="#000000" opacity="1.000000" stroke="none" 
	d="
M472.758118,540.574646 
	C471.691528,546.878174 470.753876,552.758728 469.657806,558.609619 
	C469.376434,560.111511 469.220520,562.375549 466.802887,561.753418 
	C464.843170,561.249207 464.772980,559.369080 465.056122,557.632568 
	C466.465698,548.988403 467.863098,540.342102 469.330719,531.707764 
	C469.631531,529.938049 469.996643,527.557800 472.450653,528.151367 
	C474.752686,528.708069 474.161530,530.929749 473.847717,532.771484 
	C473.431335,535.214905 473.161102,537.683105 472.758118,540.574646 
z"/>
<path fill="#000000" opacity="1.000000" stroke="none" 
	d="
M732.383484,226.474167 
	C728.276550,227.989258 724.539734,229.388336 720.798828,230.776627 
	C719.434937,231.282776 718.068665,231.352875 717.375366,229.831024 
	C716.651306,228.241577 717.725159,227.276474 719.040771,226.766205 
	C728.180664,223.221390 737.335266,219.714157 746.504456,216.245850 
	C747.704102,215.792068 748.899353,216.070312 749.341797,217.459824 
	C749.948364,219.364700 748.594788,220.258316 747.176025,220.822342 
	C742.391235,222.724594 737.563354,224.518509 732.383484,226.474167 
z"/>
<path fill="#000000" opacity="1.000000" stroke="none" 
	d="
M286.895111,419.809570 
	C292.967560,416.617462 298.687195,413.544250 304.459412,410.573181 
	C306.160034,409.697876 308.422760,408.088562 309.730255,410.454315 
	C311.101166,412.934814 308.417572,413.807648 306.743317,414.691528 
	C299.531372,418.498901 292.294189,422.260071 285.017822,425.942505 
	C283.350311,426.786407 281.093292,428.504578 279.833801,425.912445 
	C278.580292,423.332581 281.375610,422.732147 283.000946,421.778351 
	C284.147461,421.105499 285.372437,420.566345 286.895111,419.809570 
z"/>
<path fill="#000000" opacity="1.000000" stroke="none" 
	d="
M348.822205,147.439362 
	C350.169678,149.002533 350.607452,150.412094 349.110626,151.609756 
	C347.748627,152.699554 346.592194,151.678833 345.642090,150.749725 
	C339.125854,144.377335 332.623047,137.990875 326.161621,131.563034 
	C325.094513,130.501480 324.047272,129.105133 325.468292,127.681099 
	C326.967072,126.179070 328.215698,127.508438 329.271973,128.522522 
	C335.725098,134.717667 342.143005,140.949509 348.822205,147.439362 
z"/>
<path fill="#000000" opacity="1.000000" stroke="none" 
	d="
M653.691711,486.237549 
	C658.500305,492.234222 663.116577,497.914795 667.625488,503.679321 
	C668.759766,505.129364 671.055298,506.973877 668.701721,508.705139 
	C666.513184,510.314941 665.122620,507.739227 663.950867,506.322632 
	C658.758911,500.045593 653.674011,493.678772 648.628113,487.283142 
	C647.549805,485.916473 645.719910,484.123657 647.476318,482.507874 
	C649.690369,480.470978 650.879517,483.097321 652.209351,484.397797 
	C652.681396,484.859467 653.046021,485.431091 653.691711,486.237549 
z"/>
<path fill="#000000" opacity="1.000000" stroke="none" 
	d="
M697.498413,156.508453 
	C693.243164,159.977081 689.281799,163.243408 685.286255,166.467316 
	C684.099792,167.424652 682.641052,168.429794 681.347595,166.953827 
	C680.051575,165.475052 681.186035,164.124557 682.370178,163.150116 
	C689.533630,157.255173 696.724426,151.393280 703.936646,145.558121 
	C705.012390,144.687775 706.428284,144.109497 707.536926,145.277573 
	C708.967712,146.785049 707.774536,148.057739 706.620239,149.036728 
	C703.713440,151.501953 700.731140,153.878082 697.498413,156.508453 
z"/>
<path fill="#000000" opacity="1.000000" stroke="none" 
	d="
M453.050568,529.103455 
	C450.832733,537.354980 448.754425,545.239563 446.592896,553.101318 
	C446.128357,554.791077 445.789490,557.390564 443.436157,556.777649 
	C440.759827,556.080688 441.833130,553.555481 442.311829,551.685303 
	C444.332825,543.789307 446.393005,535.903076 448.495178,528.028320 
	C448.992371,526.165710 449.245483,523.492249 451.962067,524.086548 
	C454.478119,524.636963 453.331848,527.003967 453.050568,529.103455 
z"/>
<path fill="#000000" opacity="1.000000" stroke="none" 
	d="
M417.089691,69.103943 
	C420.888824,78.289970 424.480408,87.193275 427.982697,96.131569 
	C428.552460,97.585655 429.566345,99.590942 427.238403,100.335983 
	C425.125824,101.012093 424.468292,99.015808 423.862549,97.490967 
	C420.620483,89.329956 417.335602,81.183899 414.267242,72.957420 
	C413.517639,70.947670 411.627014,67.444077 417.089691,69.103943 
z"/>
<path fill="#000000" opacity="1.000000" stroke="none" 
	d="
M281.944275,225.149078 
	C277.553925,223.446838 273.507477,221.930557 269.490479,220.339783 
	C267.956207,219.732193 266.809326,218.595886 267.693542,216.885742 
	C268.432007,215.457443 269.949310,215.717636 271.251831,216.206161 
	C279.811829,219.416672 288.368378,222.636719 296.912292,225.889725 
	C298.372864,226.445816 299.817200,227.336990 299.189575,229.174332 
	C298.532806,231.096985 296.825317,230.710602 295.389648,230.192169 
	C291.009369,228.610382 286.660797,226.940765 281.944275,225.149078 
z"/>
<path fill="#000000" opacity="1.000000" stroke="none" 
	d="
M747.898438,240.751266 
	C750.210083,240.123535 752.110413,239.535263 754.032288,239.028564 
	C755.392212,238.670029 756.876648,238.645966 757.414673,240.193558 
	C758.047485,242.013336 756.714600,242.884811 755.210754,243.439667 
	C754.434998,243.725891 753.641785,243.971298 752.844177,244.190582 
	C745.655823,246.166702 738.492554,248.245728 731.257568,250.033691 
	C729.078918,250.572098 725.694214,252.785446 724.690857,249.605164 
	C723.625854,246.229462 727.713623,246.439224 729.787415,245.787216 
	C735.632568,243.949387 741.585754,242.455200 747.898438,240.751266 
z"/>
<path fill="#000000" opacity="1.000000" stroke="none" 
	d="
M283.250732,318.960083 
	C287.523499,322.191040 284.990173,323.128082 281.975830,323.367767 
	C275.860291,323.854004 269.721008,324.036774 263.593384,324.378082 
	C260.783722,324.534576 257.980713,324.819916 255.170242,324.950928 
	C253.470367,325.030121 251.514297,324.914856 251.364944,322.745087 
	C251.226685,320.736206 253.133194,320.596344 254.595200,320.498962 
	C259.391449,320.179596 264.195221,319.974518 268.994812,319.702515 
	C273.617676,319.440491 278.238983,319.149872 283.250732,318.960083 
z"/>
<path fill="#000000" opacity="1.000000" stroke="none" 
	d="
M736.713135,341.287598 
	C744.512329,342.442139 751.928589,343.456604 759.333130,344.550354 
	C760.977783,344.793304 763.108643,345.223389 762.583923,347.419312 
	C762.122131,349.351837 760.087830,349.217957 758.356628,348.955170 
	C750.136292,347.707367 741.905029,346.529266 733.696289,345.210480 
	C731.731140,344.894775 728.456238,345.273712 728.902588,342.264404 
	C729.346436,339.272247 732.408875,340.899567 734.376465,340.785767 
	C735.016602,340.748810 735.675598,341.036743 736.713135,341.287598 
z"/>
<path fill="#000000" opacity="1.000000" stroke="none" 
	d="
M517.265991,79.249008 
	C518.118286,71.070152 517.211670,63.229652 518.640137,55.516483 
	C518.917786,54.017345 518.174316,51.701721 520.726379,51.819553 
	C523.328857,51.939705 523.039185,54.266582 522.974915,56.023609 
	C522.683960,63.970692 522.360046,71.917976 521.897278,79.856392 
	C521.780151,81.865517 522.065247,85.010765 519.195801,84.851837 
	C516.340027,84.693680 517.003052,81.779961 517.265991,79.249008 
z"/>
<path fill="#000000" opacity="1.000000" stroke="none" 
	d="
M602.970459,73.088081 
	C599.647522,81.455414 596.483459,89.489143 593.279358,97.506836 
	C592.613831,99.172295 591.983032,101.442360 589.554199,100.330460 
	C587.461304,99.372345 588.612671,97.481964 589.199402,95.972435 
	C592.326294,87.927391 595.459167,79.884575 598.630188,71.856911 
	C599.240906,70.310944 599.959351,68.441338 602.071594,69.007416 
	C604.060364,69.540382 603.535095,71.274002 602.970459,73.088081 
z"/>
<path fill="#000000" opacity="1.000000" stroke="none" 
	d="
M542.535583,531.954102 
	C542.459534,529.980957 542.637146,528.360352 544.603027,528.241211 
	C546.194702,528.144775 546.873657,529.514709 547.095032,530.874146 
	C548.557434,539.856995 550.000122,548.843628 551.345703,557.844482 
	C551.572937,559.364563 552.142700,561.572998 549.729858,561.822205 
	C547.500610,562.052490 547.286377,559.834778 547.012268,558.304688 
	C545.464050,549.662720 544.041382,540.998291 542.535583,531.954102 
z"/>
<path fill="#000000" opacity="1.000000" stroke="none" 
	d="
M736.707153,424.432251 
	C737.143372,427.904449 735.204285,428.193085 733.116943,427.149963 
	C724.801392,422.994415 716.580078,418.650208 708.330322,414.363403 
	C707.052368,413.699371 706.065308,412.714417 706.706848,411.185394 
	C707.550842,409.174194 709.113831,409.859589 710.474121,410.545532 
	C719.213135,414.952209 728.177673,418.928192 736.707153,424.432251 
z"/>
<path fill="#000000" opacity="1.000000" stroke="none" 
	d="
M708.996094,440.075745 
	C704.955688,437.428223 701.198547,435.007172 697.504028,432.494049 
	C696.217346,431.618866 695.101990,430.393494 696.374573,428.789978 
	C697.456787,427.426453 698.820984,428.167267 699.942810,428.883667 
	C707.614807,433.783112 715.268921,438.710724 722.909241,443.659332 
	C724.161804,444.470612 725.691101,445.456696 724.600342,447.192352 
	C723.588684,448.802094 721.979370,448.254303 720.643311,447.425598 
	C716.844666,445.069489 713.081299,442.656586 708.996094,440.075745 
z"/>
<path fill="#000000" opacity="1.000000" stroke="none" 
	d="
M270.192596,341.988464 
	C274.710968,341.271881 278.787109,340.613129 282.873444,340.024811 
	C284.650970,339.768860 286.969452,339.154663 287.585663,341.417786 
	C288.285980,343.989899 285.779480,344.214722 284.080780,344.475128 
	C275.259369,345.827423 266.423553,347.088837 257.582336,348.306183 
	C256.154480,348.502838 254.316666,348.736603 254.036804,346.652313 
	C253.764023,344.620972 255.578827,344.261475 256.992035,344.016235 
	C261.230835,343.280670 265.498260,342.709961 270.192596,341.988464 
z"/>
<path fill="#000000" opacity="1.000000" stroke="none" 
	d="
M744.936462,324.333710 
	C741.474243,324.193604 738.484802,324.160583 735.515869,323.896637 
	C733.541748,323.721161 731.342590,323.477417 731.949463,320.276520 
	C740.156616,320.276520 748.361084,320.235626 756.564514,320.306152 
	C758.542419,320.323120 760.526306,320.648193 762.490112,320.946381 
	C763.827209,321.149414 765.235474,321.565735 765.165833,323.297333 
	C765.093567,325.095093 763.621460,325.318115 762.272400,325.256622 
	C756.652039,325.000244 751.035767,324.655151 744.936462,324.333710 
z"/>
<path fill="#000000" opacity="1.000000" stroke="none" 
	d="
M268.012573,239.780045 
	C275.469147,241.819107 282.534058,243.751114 289.581482,245.744888 
	C291.442627,246.271423 294.110077,246.621521 293.220001,249.364822 
	C292.437439,251.776566 290.062744,250.570526 288.423035,250.139755 
	C281.019989,248.194809 273.617981,246.228119 266.294434,244.009064 
	C264.181061,243.368683 260.081757,243.507050 261.080048,240.174377 
	C262.045044,236.952927 265.338654,239.564560 268.012573,239.780045 
z"/>
<path fill="#000000" opacity="1.000000" stroke="none" 
	d="
M395.246826,87.677643 
	C394.258636,85.708084 393.416534,84.086334 392.637238,82.434967 
	C391.999237,81.083008 391.113800,79.489510 392.834259,78.462669 
	C394.639008,77.385544 395.572235,78.976486 396.250275,80.300522 
	C400.487122,88.573990 404.683258,96.868507 408.846466,105.179298 
	C409.441132,106.366371 410.002197,107.892502 408.604736,108.781700 
	C406.854767,109.895180 405.796631,108.461823 405.101837,107.114189 
	C401.830841,100.769569 398.639709,94.383774 395.246826,87.677643 
z"/>
<path fill="#000000" opacity="1.000000" stroke="none" 
	d="
M325.518188,161.514557 
	C320.391235,157.283432 315.504150,153.321609 310.693390,149.269180 
	C309.603088,148.350769 308.143250,147.150162 309.575684,145.551453 
	C310.907043,144.065521 312.334137,145.067978 313.509705,146.023254 
	C320.574432,151.764267 327.617310,157.532227 334.654022,163.307556 
	C335.755096,164.211258 336.593018,165.405624 335.517975,166.712112 
	C334.513153,167.933273 333.085388,167.647598 331.941040,166.764038 
	C329.847229,165.147430 327.833038,163.427750 325.518188,161.514557 
z"/>
<path fill="#000000" opacity="1.000000" stroke="none" 
	d="
M499.141724,54.660248 
	C499.519165,63.554005 499.891815,72.025276 500.164795,80.499763 
	C500.220551,82.229927 500.666748,84.736771 498.155121,84.866470 
	C495.637268,84.996483 495.817566,82.493912 495.735657,80.740173 
	C495.340332,72.277473 495.002991,63.811817 494.702759,55.345165 
	C494.650970,53.884575 494.514496,52.092972 496.539856,51.795982 
	C498.182556,51.555103 498.847534,52.788086 499.141724,54.660248 
z"/>
<path fill="#000000" opacity="1.000000" stroke="none" 
	d="
M680.377930,135.367889 
	C683.050598,132.844528 685.443298,130.537064 687.881714,128.278946 
	C688.859192,127.373734 690.011719,126.322227 691.365417,127.372963 
	C692.755066,128.451569 692.157043,129.908737 691.194641,130.864258 
	C684.242859,137.766373 677.237183,144.614685 670.191650,151.421112 
	C669.339172,152.244659 667.993164,152.682571 667.117615,151.473816 
	C666.000305,149.931396 667.010620,148.674469 668.117859,147.569031 
	C672.115112,143.578339 676.116516,139.591736 680.377930,135.367889 
z"/>
<path fill="#000000" opacity="1.000000" stroke="none" 
	d="
M729.647705,210.519440 
	C731.074402,209.944031 732.138123,209.468292 733.244995,209.137283 
	C734.443237,208.778946 735.643982,208.890823 736.227234,210.171265 
	C736.952087,211.762833 735.946289,212.700912 734.645386,213.278641 
	C728.746521,215.898590 722.846008,218.517792 716.894958,221.015244 
	C715.672668,221.528152 714.147583,221.513962 713.476624,219.956894 
	C712.763733,218.302658 714.034302,217.452133 715.227844,216.906143 
	C719.892578,214.772171 724.607483,212.747894 729.647705,210.519440 
z"/>
<path fill="#000000" opacity="1.000000" stroke="none" 
	d="
M438.794495,539.644897 
	C438.279785,541.115601 437.986328,542.255493 437.498657,543.305115 
	C436.969147,544.444763 436.077728,545.236206 434.712280,544.649353 
	C433.683350,544.207214 433.145233,543.186157 433.438690,542.190063 
	C435.411316,535.494263 437.447662,528.816345 439.565430,522.165100 
	C439.961212,520.922119 441.098358,520.351196 442.395752,521.004395 
	C443.888397,521.755920 443.845398,523.148926 443.448242,524.481506 
	C441.975769,529.422485 440.441315,534.344910 438.794495,539.644897 
z"/>
<path fill="#000000" opacity="1.000000" stroke="none" 
	d="
M387.325256,517.246399 
	C386.686951,518.250366 386.244995,518.949280 385.768860,519.624084 
	C384.792511,521.007751 383.737854,522.577759 381.817902,521.207764 
	C380.201324,520.054138 381.050049,518.514221 381.804657,517.229187 
	C384.731262,512.245178 387.705627,507.289093 390.683136,502.335175 
	C391.546783,500.898315 392.583344,499.139557 394.504333,500.253845 
	C396.771545,501.568970 395.382385,503.373352 394.478333,504.935730 
	C392.162231,508.938568 389.831177,512.932739 387.325256,517.246399 
z"/>
<path fill="#000000" opacity="1.000000" stroke="none" 
	d="
M346.437744,494.534576 
	C342.771515,494.192657 343.375183,492.132812 344.758362,490.462036 
	C348.776947,485.607941 352.996063,480.918488 357.191833,476.213745 
	C358.093323,475.202942 359.374146,474.289520 360.675354,475.346100 
	C362.218750,476.599304 361.446411,478.053253 360.390778,479.244354 
	C355.885406,484.328003 351.867554,489.850586 346.437744,494.534576 
z"/>
<path fill="#000000" opacity="1.000000" stroke="none" 
	d="
M309.664490,161.686737 
	C310.062317,158.418182 311.885498,158.837128 313.544586,160.022415 
	C318.527649,163.582413 323.418549,167.273132 328.297302,170.976181 
	C329.464111,171.861771 330.922607,173.005310 329.593353,174.640244 
	C328.470154,176.021683 326.789764,175.689667 325.555298,174.698959 
	C320.283234,170.467911 314.374603,167.027863 309.664490,161.686737 
z"/>
<path fill="#000000" opacity="1.000000" stroke="none" 
	d="
M662.153320,486.823883 
	C659.957764,484.312164 657.995483,482.069702 656.057617,479.806366 
	C655.043884,478.622437 654.140442,477.263519 655.430176,475.846893 
	C656.856628,474.280212 658.186707,475.359253 659.208740,476.499725 
	C663.294250,481.058746 667.358826,485.638367 671.331909,490.294983 
	C672.350220,491.488495 673.833984,493.111511 671.860352,494.532867 
	C670.114990,495.789795 668.777222,494.255127 667.654846,493.037689 
	C665.860657,491.091553 664.145447,489.072632 662.153320,486.823883 
z"/>
<path fill="#000000" opacity="1.000000" stroke="none" 
	d="
M318.289307,445.342773 
	C315.282867,447.446411 312.610779,449.403351 309.862122,451.246094 
	C308.759521,451.985321 307.366150,452.668640 306.305084,451.289124 
	C305.124847,449.754730 306.000702,448.426788 307.302216,447.487885 
	C312.270508,443.903931 317.249023,440.331299 322.308929,436.879303 
	C323.500366,436.066467 325.191833,435.345001 326.228821,437.124329 
	C327.221985,438.828430 325.838684,439.905457 324.647949,440.807220 
	C322.668579,442.306305 320.615173,443.707733 318.289307,445.342773 
z"/>
<path fill="#000000" opacity="1.000000" stroke="none" 
	d="
M579.033936,542.694092 
	C577.133911,536.633728 575.357300,530.936829 573.652039,525.218506 
	C573.185364,523.653870 572.485291,521.749268 574.831177,521.111755 
	C576.788940,520.579651 577.429871,522.347961 577.872620,523.706604 
	C579.771851,529.534668 581.562439,535.398804 583.330872,541.268372 
	C583.724792,542.575745 583.809265,544.025146 582.284241,544.726318 
	C580.641785,545.481506 579.912842,544.181580 579.033936,542.694092 
z"/>
<path fill="#000000" opacity="1.000000" stroke="none" 
	d="
M732.956970,412.373596 
	C730.754211,413.632935 729.141174,412.400513 727.535522,411.691711 
	C722.666748,409.542542 717.837463,407.298645 713.051453,404.970917 
	C711.885193,404.403687 710.649292,403.416992 711.300964,401.817566 
	C711.932373,400.267792 713.318237,400.168976 714.672791,400.792877 
	C720.420959,403.440399 726.159058,406.110870 731.866638,408.844482 
	C733.168091,409.467804 733.952148,410.529358 732.956970,412.373596 
z"/>
<path fill="#000000" opacity="1.000000" stroke="none" 
	d="
M740.906677,357.204163 
	C736.909912,356.422577 733.320862,355.767609 729.766785,354.958588 
	C728.440186,354.656586 727.171875,353.890015 727.433105,352.233093 
	C727.715942,350.438843 729.263794,350.420013 730.562805,350.655426 
	C736.755554,351.778107 742.942322,352.944336 749.098755,354.248413 
	C750.524048,354.550323 752.156311,355.397552 751.570740,357.310638 
	C751.079712,358.914825 749.526184,358.685516 748.178467,358.453064 
	C745.894897,358.059265 743.611633,357.664124 740.906677,357.204163 
z"/>
<path fill="#000000" opacity="1.000000" stroke="none" 
	d="
M280.505249,351.400635 
	C282.861786,350.864624 284.798492,350.358429 286.765533,350.038330 
	C288.177826,349.808502 289.545807,350.158966 289.845245,351.806763 
	C290.094086,353.175995 289.140320,353.953094 287.925110,354.324768 
	C281.377747,356.327179 274.596985,357.149170 267.865814,358.202576 
	C266.606995,358.399536 265.495361,357.732941 265.267487,356.403656 
	C265.008636,354.894043 266.292847,354.342834 267.396667,354.097565 
	C271.614044,353.160614 275.861908,352.360962 280.505249,351.400635 
z"/>
<path fill="#000000" opacity="1.000000" stroke="none" 
	d="
M634.946533,518.298096 
	C635.363647,521.779907 633.648743,522.878479 631.883423,520.390076 
	C627.964417,514.865784 624.709290,508.866699 621.262634,503.014587 
	C620.631653,501.943298 620.754944,500.591583 621.948486,499.938812 
	C623.641968,499.012695 624.731750,500.039886 625.545654,501.488617 
	C628.630188,506.979004 631.724731,512.463745 634.946533,518.298096 
z"/>
<path fill="#000000" opacity="1.000000" stroke="none" 
	d="
M703.379639,160.546234 
	C705.059143,159.595459 706.583557,158.977463 707.542908,160.741516 
	C708.460205,162.428284 707.133179,163.519928 705.906433,164.409882 
	C701.217834,167.811264 696.521301,171.202606 691.783875,174.535416 
	C690.488586,175.446625 688.897583,176.987381 687.480774,175.120316 
	C686.089600,173.286835 687.869629,172.122177 689.169250,171.137436 
	C693.786621,167.638702 698.442444,164.190796 703.379639,160.546234 
z"/>
<path fill="#000000" opacity="1.000000" stroke="none" 
	d="
M578.936157,95.675491 
	C580.035950,88.573036 582.710022,82.305725 584.930908,75.900200 
	C585.395874,74.559120 586.024719,72.812843 588.055359,73.556076 
	C589.992188,74.264946 589.566833,75.987656 589.112000,77.380058 
	C587.259033,83.052505 585.354370,88.710258 583.330505,94.323578 
	C582.631165,96.262955 581.582214,98.187950 578.936157,95.675491 
z"/>
<path fill="#000000" opacity="1.000000" stroke="none" 
	d="
M621.544189,112.553558 
	C620.466370,114.128014 619.478027,115.526611 617.774170,114.395721 
	C616.130371,113.304695 616.915771,111.721542 617.621460,110.408897 
	C620.438354,105.169113 623.298462,99.952309 626.181763,94.748703 
	C626.915649,93.424133 627.839050,91.925430 629.627197,93.045120 
	C631.200195,94.030106 630.829285,95.627289 630.074402,97.021378 
	C627.320557,102.106857 624.524780,107.169609 621.544189,112.553558 
z"/>
<path fill="#000000" opacity="1.000000" stroke="none" 
	d="
M291.564880,409.645203 
	C289.415802,410.643707 287.625275,411.527893 285.785187,412.292938 
	C284.651428,412.764313 283.401550,412.882294 282.790894,411.509338 
	C282.237000,410.263977 282.743225,409.186707 283.953918,408.608459 
	C289.951416,405.743744 295.947723,402.874512 301.994934,400.117584 
	C303.245514,399.547455 304.721069,399.654541 305.430481,401.163361 
	C306.214844,402.831543 304.953583,403.662476 303.745087,404.220978 
	C299.824585,406.032745 295.853851,407.735748 291.564880,409.645203 
z"/>
<path fill="#000000" opacity="1.000000" stroke="none" 
	d="
M532.225342,534.762573 
	C532.015381,532.536987 531.557922,530.282471 534.152283,530.106689 
	C536.626099,529.939026 536.760620,532.330383 536.992615,534.043579 
	C537.746033,539.608032 538.330566,545.195557 538.967163,550.775574 
	C539.127075,552.176941 538.973267,553.648010 537.397400,553.999084 
	C535.460571,554.430481 534.790283,552.950500 534.560181,551.362671 
	C533.779053,545.971985 533.054199,540.573181 532.225342,534.762573 
z"/>
<path fill="#000000" opacity="1.000000" stroke="none" 
	d="
M299.522095,220.443390 
	C293.826111,218.014633 288.476044,215.716583 283.163605,213.334534 
	C281.810455,212.727798 280.118469,211.893265 280.833801,210.066177 
	C281.688416,207.883240 283.667419,208.698212 285.129517,209.310043 
	C290.503601,211.558914 295.817230,213.952774 301.143341,216.315247 
	C302.389465,216.868027 303.702454,217.555679 303.373505,219.206497 
	C302.952759,221.318024 301.442627,221.122223 299.522095,220.443390 
z"/>
<path fill="#000000" opacity="1.000000" stroke="none" 
	d="
M339.873962,127.392212 
	C341.446136,124.503471 343.037170,125.768623 344.322845,127.147194 
	C348.410309,131.529938 352.408112,135.997467 356.380859,140.485077 
	C357.319031,141.544861 358.786316,142.748947 357.192444,144.302200 
	C355.681519,145.774658 354.464355,144.692719 353.411163,143.509521 
	C348.799072,138.327957 343.256592,133.947418 339.873962,127.392212 
z"/>
<path fill="#000000" opacity="1.000000" stroke="none" 
	d="
M708.390991,447.546722 
	C709.889771,448.845825 711.656250,450.024078 710.062988,451.762054 
	C708.672302,453.278961 706.984802,452.168884 705.611206,451.204651 
	C701.016541,447.979095 696.439819,444.727814 691.873779,441.461853 
	C690.626282,440.569550 689.278015,439.410797 690.381165,437.815155 
	C691.661865,435.962708 693.393738,437.012573 694.740601,437.937073 
	C699.230652,441.019165 703.648499,444.206421 708.390991,447.546722 
z"/>
<path fill="#000000" opacity="1.000000" stroke="none" 
	d="
M747.078125,252.573364 
	C748.644653,252.643936 749.858032,252.740707 750.043152,254.268005 
	C750.220398,255.730377 749.169373,256.408875 748.038635,256.692017 
	C741.962219,258.213562 735.873718,259.691162 729.763977,261.071442 
	C728.278137,261.407104 726.569031,261.269836 726.328918,259.275696 
	C726.130676,257.629608 727.545837,257.087250 728.871521,256.772003 
	C734.807495,255.360504 740.751648,253.983551 747.078125,252.573364 
z"/>
<path fill="#000000" opacity="1.000000" stroke="none" 
	d="
M663.757202,136.811493 
	C666.832703,133.534164 669.638855,130.500076 672.518494,127.537338 
	C673.541809,126.484489 674.809021,125.161507 676.338257,126.409386 
	C677.977722,127.747215 676.728333,129.149841 675.761780,130.234131 
	C671.695618,134.795380 667.584106,139.317017 663.427795,143.796280 
	C662.510559,144.784836 661.215576,145.602966 659.926697,144.544769 
	C658.442078,143.325806 658.957092,141.888962 660.078552,140.656906 
	C661.190918,139.434814 662.368164,138.271774 663.757202,136.811493 
z"/>
<path fill="#000000" opacity="1.000000" stroke="none" 
	d="
M479.660278,534.141724 
	C479.819550,531.916382 479.707092,529.581116 482.275299,529.816101 
	C484.841858,530.050964 484.354279,532.439514 484.173737,534.166992 
	C483.607117,539.588928 482.917023,544.998413 482.232117,550.407288 
	C482.020691,552.077209 481.668091,554.094543 479.508759,553.811951 
	C477.289490,553.521545 477.619537,551.318481 477.778809,549.770325 
	C478.301392,544.690491 479.013092,539.630249 479.660278,534.141724 
z"/>
<path fill="#000000" opacity="1.000000" stroke="none" 
	d="
M386.937073,96.088264 
	C386.229340,94.225739 386.029297,92.671883 387.981659,92.114403 
	C389.615265,91.647949 390.312714,93.120285 390.945129,94.240662 
	C393.797333,99.293411 396.617249,104.365326 399.366364,109.474693 
	C400.148407,110.928192 401.009888,112.754250 398.905731,113.761269 
	C397.037292,114.655472 396.283203,112.842049 395.579834,111.610695 
	C392.702118,106.572884 389.912079,101.484962 386.937073,96.088264 
z"/>
<path fill="#000000" opacity="1.000000" stroke="none" 
	d="
M429.016968,79.840500 
	C428.718384,78.823936 428.564911,78.178604 428.372498,77.545074 
	C427.938263,76.115265 427.197876,74.469131 429.174103,73.744408 
	C431.048615,73.056999 431.850769,74.563538 432.355347,76.030556 
	C434.347900,81.823715 436.317749,87.625122 438.227905,93.445831 
	C438.652130,94.738632 438.788696,96.264496 437.140717,96.803040 
	C435.510651,97.335754 434.661469,96.002235 434.210236,94.763237 
	C432.453430,89.939346 430.822266,85.069710 429.016968,79.840500 
z"/>
<path fill="#000000" opacity="1.000000" stroke="none" 
	d="
M533.420105,63.535961 
	C533.029053,70.003708 532.564026,76.087387 532.001709,82.162064 
	C531.853271,83.765862 531.731873,85.883934 529.516541,85.757668 
	C527.616516,85.649368 527.587036,83.716415 527.692139,82.243538 
	C528.091125,76.653610 528.414062,71.047356 529.152283,65.498672 
	C529.398743,63.646248 529.793823,60.107742 533.420105,63.535961 
z"/>
<path fill="#000000" opacity="1.000000" stroke="none" 
	d="
M274.807556,253.146881 
	C279.566711,254.307861 283.940552,255.340683 288.295593,256.447510 
	C289.590668,256.776672 291.081299,257.244934 290.782257,258.997223 
	C290.501556,260.642090 289.038116,261.021637 287.672516,260.714630 
	C281.669952,259.365204 275.686462,257.927399 269.716675,256.438843 
	C268.380676,256.105682 267.098328,255.317627 267.571442,253.637619 
	C267.960388,252.256470 269.247650,252.201218 270.471375,252.389526 
	C271.788483,252.592194 273.100677,252.826508 274.807556,253.146881 
z"/>
<path fill="#000000" opacity="1.000000" stroke="none" 
	d="
M276.860931,313.164124 
	C272.225647,313.162811 268.069489,313.204987 263.915253,313.134277 
	C262.375336,313.108063 260.649567,312.721100 260.644714,310.824799 
	C260.639496,308.796082 262.509216,308.738617 263.972015,308.724670 
	C269.788971,308.669159 275.606964,308.696808 281.424347,308.727905 
	C282.798340,308.735260 284.070465,309.072266 284.897339,310.671967 
	C283.424469,314.427429 279.979858,312.693268 276.860931,313.164124 
z"/>
<path fill="#000000" opacity="1.000000" stroke="none" 
	d="
M751.731079,313.350708 
	C746.105957,313.351105 740.950134,313.372681 735.794922,313.327820 
	C734.167725,313.313660 732.050293,313.536591 731.895386,311.270264 
	C731.727478,308.815308 733.956787,309.039459 735.521423,309.018433 
	C741.008301,308.944824 746.497864,308.954376 751.984375,309.049469 
	C753.577271,309.077118 755.752930,308.984650 755.877625,311.190186 
	C756.018127,313.673950 753.740295,313.123138 751.731079,313.350708 
z"/>
<path fill="#000000" opacity="1.000000" stroke="none" 
	d="
M483.823547,68.865334 
	C483.754303,67.586197 483.668335,66.753487 483.721252,65.929710 
	C483.822723,64.350311 483.394379,62.212017 485.874390,62.270771 
	C487.769623,62.315670 487.978912,64.110199 488.124664,65.609894 
	C488.653564,71.052277 489.182129,76.495407 489.617645,81.945694 
	C489.744263,83.529991 490.123413,85.652054 487.772827,85.843971 
	C485.733032,86.010513 485.741699,84.057037 485.551361,82.608200 
	C484.969574,78.180183 484.427216,73.746979 483.823547,68.865334 
z"/>
<path fill="#000000" opacity="1.000000" stroke="none" 
	d="
M666.671204,469.174133 
	C669.086426,471.698303 671.285889,473.933533 673.344543,476.291718 
	C674.277344,477.360138 675.563660,478.710358 673.826416,480.074219 
	C672.408691,481.187195 670.980042,480.525574 669.845276,479.392975 
	C667.627258,477.179199 665.441711,474.931305 663.295044,472.648346 
	C662.384766,471.680298 661.441833,470.562286 662.512146,469.176666 
	C663.658142,467.693176 665.031128,467.883728 666.671204,469.174133 
z"/>
<path fill="#000000" opacity="1.000000" stroke="none" 
	d="
M735.822876,298.440247 
	C738.870361,298.331451 741.505432,298.163757 744.130798,298.259857 
	C745.608643,298.313934 747.284180,298.712219 747.174988,300.721405 
	C747.085693,302.365417 745.606995,302.813904 744.296326,302.883820 
	C741.338745,303.041534 738.367981,303.070892 735.406799,302.991730 
	C733.753784,302.947540 731.735596,302.685394 731.680603,300.582123 
	C731.615479,298.095154 733.935547,298.822021 735.822876,298.440247 
z"/>
<path fill="#000000" opacity="1.000000" stroke="none" 
	d="
M319.631409,453.215088 
	C322.042542,449.554291 325.569550,447.574097 328.691101,445.137177 
	C329.764008,444.299561 331.150269,443.818695 332.273468,445.115051 
	C333.656525,446.711365 332.574799,447.871613 331.343170,448.856812 
	C328.748108,450.932648 326.163330,453.027283 323.479218,454.983734 
	C321.621674,456.337708 320.041595,456.300568 319.631409,453.215088 
z"/>
<path fill="#000000" opacity="1.000000" stroke="none" 
	d="
M711.705994,206.712921 
	C714.290833,205.509277 716.533813,204.467773 718.779602,203.432632 
	C720.289429,202.736725 722.061462,201.733459 723.105957,203.737488 
	C724.333313,206.092285 722.202087,206.842804 720.594299,207.663208 
	C718.390442,208.787796 716.186035,209.912903 713.955505,210.982956 
	C712.487244,211.687317 710.746155,212.835449 709.479309,211.100952 
	C707.929749,208.979355 709.813721,207.888565 711.705994,206.712921 
z"/>
<path fill="#000000" opacity="1.000000" stroke="none" 
	d="
M654.409790,138.171967 
	C650.587280,138.584274 650.856506,136.523972 652.195618,134.635590 
	C654.187012,131.827393 656.563232,129.285629 658.851807,126.697807 
	C659.775452,125.653343 661.002747,124.982307 662.311890,126.080673 
	C663.634033,127.189934 663.147034,128.587860 662.284180,129.605606 
	C659.842590,132.485458 657.249451,135.236832 654.409790,138.171967 
z"/>
<path fill="#000000" opacity="1.000000" stroke="none" 
	d="
M707.084778,175.863052 
	C704.728210,180.147964 700.413757,181.549240 696.975952,184.065399 
	C696.015381,184.768433 694.711060,184.754425 693.824341,183.650620 
	C693.272156,182.963211 693.218384,182.166550 693.616272,181.318436 
	C694.387451,179.674606 703.986755,173.869141 705.766846,174.167328 
	C706.264282,174.250656 706.645874,175.024933 707.084778,175.863052 
z"/>
<path fill="#000000" opacity="1.000000" stroke="none" 
	d="
M348.695801,476.631348 
	C347.783508,477.613770 347.142090,478.381927 346.399872,479.035583 
	C345.112823,480.169067 343.562103,481.325836 342.109406,479.641693 
	C340.898010,478.237183 342.002777,476.876221 343.108948,475.767548 
	C345.329071,473.542480 347.505951,471.272430 349.778351,469.102264 
	C350.757172,468.167389 352.013123,467.379303 353.274628,468.598755 
	C354.753143,470.028046 353.769165,471.328857 352.733154,472.464050 
	C351.508209,473.806213 350.195831,475.068604 348.695801,476.631348 
z"/>
<path fill="#000000" opacity="1.000000" stroke="none" 
	d="
M521.792236,536.947510 
	C521.796875,535.349731 521.762024,534.195007 521.861450,533.051819 
	C521.952942,531.999512 522.450317,531.137390 523.616577,531.008484 
	C524.972046,530.858582 525.935181,531.575012 526.092773,532.855835 
	C526.532776,536.433411 527.528870,539.978760 527.044617,543.624390 
	C526.863892,544.984436 526.223572,546.263977 524.583252,546.200256 
	C523.155457,546.144775 522.806458,544.941711 522.643860,543.745056 
	C522.356384,541.629944 522.087891,539.512146 521.792236,536.947510 
z"/>
<path fill="#000000" opacity="1.000000" stroke="none" 
	d="
M427.466522,523.530396 
	C428.929504,521.249817 428.161346,516.532166 431.884857,517.981934 
	C435.176086,519.263489 432.383698,522.608521 431.739746,524.948547 
	C431.171661,527.012573 430.207947,528.975830 429.327820,530.942810 
	C428.808655,532.103088 427.850861,532.833435 426.530273,532.369873 
	C425.193115,531.900452 424.912048,530.695374 425.281799,529.495605 
	C425.866791,527.597412 426.640472,525.757263 427.466522,523.530396 
z"/>
<path fill="#000000" opacity="1.000000" stroke="none" 
	d="
M731.968750,266.631348 
	C735.300781,266.064789 738.224609,265.453278 741.179443,265.104279 
	C742.312866,264.970367 743.592407,265.474854 743.804688,266.878265 
	C744.018555,268.292145 743.025330,268.984467 741.795044,269.264374 
	C738.725830,269.962646 735.660645,270.701996 732.560730,271.231110 
	C730.977417,271.501343 728.900330,271.860168 728.439209,269.642242 
	C727.973877,267.403870 729.889343,267.014435 731.968750,266.631348 
z"/>
<path fill="#000000" opacity="1.000000" stroke="none" 
	d="
M571.522095,82.722031 
	C572.212830,80.787636 572.730957,78.856285 574.922424,79.584930 
	C576.756165,80.194618 576.356445,82.011864 575.981506,83.442230 
	C575.185120,86.479721 574.282043,89.490662 573.358337,92.492676 
	C572.988831,93.693642 572.162781,94.607979 570.799622,94.324768 
	C569.146301,93.981277 568.839233,92.613693 569.173218,91.227242 
	C569.831238,88.496094 570.651917,85.804161 571.522095,82.722031 
z"/>
<path fill="#000000" opacity="1.000000" stroke="none" 
	d="
M616.640015,517.058228 
	C615.285767,514.581055 614.025391,512.448425 612.949768,510.226288 
	C612.202332,508.682098 610.700317,506.702759 613.103699,505.544769 
	C615.298462,504.487274 616.263367,506.614014 617.150757,508.158356 
	C618.382385,510.301819 619.475281,512.524597 620.658447,514.696533 
	C621.387817,516.035583 622.258118,517.507629 620.802307,518.719482 
	C618.970703,520.244019 617.847168,518.713867 616.640015,517.058228 
z"/>
<path fill="#000000" opacity="1.000000" stroke="none" 
	d="
M300.313965,390.361511 
	C301.475586,391.515839 301.918335,392.892578 300.847595,393.614349 
	C297.128174,396.121399 292.878723,397.532837 288.601837,398.781464 
	C287.779541,399.021515 286.988129,398.464539 286.716980,397.551514 
	C286.237091,395.935852 287.179626,394.955444 288.475250,394.448608 
	C292.288879,392.956818 295.754639,390.507019 300.313965,390.361511 
z"/>
<path fill="#000000" opacity="1.000000" stroke="none" 
	d="
M282.107971,361.887756 
	C284.418732,361.300903 286.344330,360.794037 288.280518,360.331451 
	C289.870209,359.951691 291.421692,360.042389 291.870514,361.925507 
	C292.274658,363.621338 290.849976,364.262482 289.570679,364.639099 
	C286.708038,365.481903 283.817810,366.242554 280.912109,366.922638 
	C279.312286,367.297058 277.302582,367.818420 276.748383,365.600128 
	C276.178406,363.318665 278.245148,363.047180 279.829163,362.587189 
	C280.466309,362.402191 281.094910,362.187927 282.107971,361.887756 
z"/>
<path fill="#000000" opacity="1.000000" stroke="none" 
	d="
M441.754089,84.256378 
	C441.223145,82.083191 440.503632,79.907845 443.038177,79.369102 
	C445.314301,78.885300 445.389465,81.312653 445.925293,82.733269 
	C446.862335,85.217529 447.603424,87.781731 448.309784,90.344620 
	C448.709869,91.796173 449.071381,93.500793 447.142487,94.148788 
	C445.202759,94.800415 444.461945,93.264473 443.979370,91.806091 
	C443.196075,89.439117 442.552429,87.025932 441.754089,84.256378 
z"/>
<path fill="#000000" opacity="1.000000" stroke="none" 
	d="
M736.652649,362.996399 
	C738.586487,363.813538 741.146545,363.996033 740.319763,366.477783 
	C739.559021,368.761444 737.339417,367.920410 735.606567,367.464355 
	C732.743286,366.710693 729.882507,365.937927 727.055420,365.061188 
	C725.870972,364.693848 725.020691,363.744873 725.353821,362.436676 
	C725.689453,361.118622 726.889343,360.703217 728.114746,360.959106 
	C730.850830,361.530426 733.558350,362.238678 736.652649,362.996399 
z"/>
<path fill="#000000" opacity="1.000000" stroke="none" 
	d="
M539.962646,87.052444 
	C537.930542,84.643867 538.160522,75.089218 539.871094,73.035233 
	C540.427124,72.367546 541.055115,71.871750 541.985718,72.027641 
	C542.915894,72.183449 543.687317,72.891930 543.596436,73.664101 
	C543.056091,78.252434 544.141418,83.257782 539.962646,87.052444 
z"/>
<path fill="#000000" opacity="1.000000" stroke="none" 
	d="
M400.336487,506.389587 
	C401.396820,505.150543 402.425934,504.529877 403.585785,505.347382 
	C404.733002,506.155914 404.519501,507.438812 403.993835,508.504211 
	C402.457275,511.618530 400.847137,514.697693 399.209229,517.760315 
	C398.525909,519.037964 397.414856,519.909912 395.952240,519.213379 
	C394.084991,518.324158 394.648956,516.706482 395.335327,515.374268 
	C396.849854,512.434570 398.512512,509.571136 400.336487,506.389587 
z"/>
<path fill="#000000" opacity="1.000000" stroke="none" 
	d="
M688.063843,445.879272 
	C690.713928,447.858307 693.035583,449.694397 695.360596,451.526154 
	C696.588684,452.493774 697.782410,453.665649 696.659424,455.227081 
	C695.559204,456.756805 694.012146,456.167511 692.734558,455.224030 
	C690.353760,453.465820 687.999329,451.670166 685.675476,449.837372 
	C684.632141,449.014557 683.540527,448.042053 684.299377,446.528320 
	C685.064392,445.002289 686.424438,445.294312 688.063843,445.879272 
z"/>
<path fill="#000000" opacity="1.000000" stroke="none" 
	d="
M278.025757,264.895447 
	C281.013153,265.446045 283.606171,265.867645 286.154419,266.476654 
	C287.613403,266.825378 289.245300,267.511749 288.583893,269.436951 
	C287.999847,271.136932 286.390686,271.105530 284.822052,270.785706 
	C282.251862,270.261749 279.663910,269.825195 277.089111,269.322937 
	C275.477020,269.008514 273.443939,268.783386 273.681458,266.606049 
	C273.930878,264.319611 276.007202,264.815308 278.025757,264.895447 
z"/>
<path fill="#000000" opacity="1.000000" stroke="none" 
	d="
M388.329773,111.763016 
	C388.787628,112.491280 389.114807,112.875786 389.325714,113.316010 
	C390.181244,115.101509 392.729736,117.176079 390.143829,118.817108 
	C387.490509,120.500916 386.771362,117.294342 385.617126,115.697533 
	C384.655762,114.367500 383.696564,113.013206 382.940826,111.563110 
	C382.039490,109.833672 379.373871,107.794724 381.990417,106.088951 
	C384.997742,104.128456 385.514435,107.792679 386.856415,109.347961 
	C387.385498,109.961205 387.721649,110.740944 388.329773,111.763016 
z"/>
<path fill="#000000" opacity="1.000000" stroke="none" 
	d="
M490.005188,532.930298 
	C490.713470,531.189453 491.645386,530.335083 493.208099,530.891907 
	C494.485229,531.347046 494.879395,532.522400 494.781891,533.710754 
	C494.512115,536.998657 494.169556,540.283813 493.726593,543.552490 
	C493.569397,544.712585 492.983795,545.904358 491.532959,545.788208 
	C490.078705,545.671631 489.755493,544.426697 489.756226,543.233765 
	C489.758331,539.930664 489.854523,536.627563 490.005188,532.930298 
z"/>
<path fill="#000000" opacity="1.000000" stroke="none" 
	d="
M583.320312,521.482666 
	C582.771118,519.646423 583.032532,518.383362 584.624878,517.945435 
	C585.933838,517.585510 586.838806,518.369568 587.304993,519.580811 
	C588.551331,522.818787 589.819946,526.049866 590.971802,529.321655 
	C591.372925,530.460999 591.277893,531.691162 589.930908,532.272156 
	C588.285583,532.981873 587.384521,531.902100 586.853943,530.634338 
	C585.642456,527.739685 584.575867,524.784363 583.320312,521.482666 
z"/>
<path fill="#000000" opacity="1.000000" stroke="none" 
	d="
M720.902466,391.873566 
	C723.243530,392.881836 725.242981,393.699097 727.206970,394.594177 
	C728.563843,395.212585 730.297119,395.909790 729.561218,397.771851 
	C728.726257,399.884705 726.892944,399.214203 725.298462,398.589233 
	C723.135437,397.741364 720.966309,396.904938 718.834229,395.983765 
	C717.175110,395.266968 714.798645,394.488220 715.498840,392.346313 
	C716.418518,389.533356 718.737061,391.180420 720.902466,391.873566 
z"/>
<path fill="#000000" opacity="1.000000" stroke="none" 
	d="
M635.562012,109.336166 
	C633.559204,112.614609 631.763489,115.591972 629.830017,118.476952 
	C629.179382,119.447670 628.114380,120.210373 626.855103,119.421753 
	C625.676086,118.683403 625.554871,117.415909 626.190369,116.351112 
	C628.054382,113.228218 629.738586,109.905418 632.116150,107.210396 
	C634.092773,104.969833 635.995605,105.390343 635.562012,109.336166 
z"/>
<path fill="#000000" opacity="1.000000" stroke="none" 
	d="
M358.092834,125.585266 
	C360.588715,128.505295 362.834564,131.153137 364.983612,133.877304 
	C365.704315,134.790878 366.256409,135.960159 365.233307,137.019241 
	C363.985626,138.310776 362.705688,137.616928 361.785797,136.615875 
	C359.438904,134.061951 357.192169,131.413086 354.975586,128.743881 
	C354.218933,127.832764 353.723999,126.722420 354.678101,125.599426 
	C355.614044,124.497818 356.705902,124.744484 358.092834,125.585266 
z"/>
<path fill="#000000" opacity="1.000000" stroke="none" 
	d="
M320.889221,179.034912 
	C322.411682,180.427185 324.764587,181.387833 322.899353,183.526291 
	C321.448059,185.190186 319.813171,183.706390 318.479187,182.862305 
	C315.965607,181.271881 313.510010,179.581085 311.112762,177.819778 
	C310.127411,177.095810 309.570465,175.938644 310.378113,174.770798 
	C311.162262,173.636932 312.390320,173.634369 313.479767,174.294907 
	C315.884125,175.752686 318.228516,177.309326 320.889221,179.034912 
z"/>
<path fill="#000000" opacity="1.000000" stroke="none" 
	d="
M474.296387,72.749969 
	C476.502075,71.553986 477.490295,72.752014 477.783386,74.307861 
	C478.423187,77.704353 478.841675,81.146927 479.227295,84.584503 
	C479.361206,85.778236 478.956970,87.043533 477.568756,87.267059 
	C475.865631,87.541290 475.146759,86.213554 475.008179,84.866692 
	C474.605225,80.949745 473.086792,77.116173 474.296387,72.749969 
z"/>
<path fill="#000000" opacity="1.000000" stroke="none" 
	d="
M281.670532,302.318268 
	C278.217010,302.321411 275.219421,302.330109 272.222900,302.277039 
	C270.983490,302.255127 269.773834,301.843628 269.635834,300.448669 
	C269.474152,298.814484 270.614746,297.975464 272.102081,297.929474 
	C275.427551,297.826599 278.760284,297.800415 282.084930,297.905518 
	C283.441711,297.948395 284.826508,298.514679 284.900269,300.171448 
	C284.982513,302.020111 283.444702,302.092926 281.670532,302.318268 
z"/>
<path fill="#000000" opacity="1.000000" stroke="none" 
	d="
M297.928467,208.179108 
	C296.726593,207.557022 295.841766,207.118286 294.996857,206.612778 
	C293.937469,205.978943 293.120972,205.114441 293.712463,203.799072 
	C294.312592,202.464447 295.635925,202.464142 296.683533,202.928085 
	C299.981354,204.388550 303.225281,205.977188 306.441498,207.611862 
	C307.529938,208.165100 308.274811,209.132553 307.531250,210.441483 
	C306.835907,211.665512 305.611450,211.727356 304.501801,211.263077 
	C302.384277,210.377106 300.338654,209.319290 297.928467,208.179108 
z"/>
<path fill="#000000" opacity="1.000000" stroke="none" 
	d="
M372.700256,126.519135 
	C373.568085,128.120255 374.739929,129.559296 373.093323,130.760056 
	C371.573608,131.868286 370.285919,130.757278 369.283691,129.597549 
	C368.102417,128.230576 366.952667,126.824852 365.918640,125.345520 
	C364.973267,123.992989 363.864075,122.341629 365.741425,121.048454 
	C367.617554,119.756126 368.705292,121.466621 369.744873,122.724556 
	C370.687225,123.864822 371.575928,125.049393 372.700256,126.519135 
z"/>
<path fill="#000000" opacity="1.000000" stroke="none" 
	d="
M334.106201,454.053223 
	C335.697388,452.886078 337.121033,451.304504 338.632446,453.058289 
	C340.039276,454.690643 338.636444,456.113495 337.440552,457.273712 
	C336.262817,458.416290 335.043884,459.531464 333.742523,460.527283 
	C332.448792,461.517303 330.941986,462.791046 329.486725,460.922485 
	C328.097443,459.138641 329.534668,457.879211 330.753906,456.760101 
	C331.720428,455.872986 332.796143,455.104797 334.106201,454.053223 
z"/>
<path fill="#000000" opacity="1.000000" stroke="none" 
	d="
M380.433563,118.549911 
	C381.204895,119.846375 381.854340,120.805817 382.320465,121.847321 
	C382.750305,122.807716 382.647827,123.839905 381.753662,124.520058 
	C380.824005,125.227188 379.831421,124.920044 379.076080,124.193024 
	C376.920715,122.118561 375.408112,119.569336 374.056091,116.937752 
	C373.564911,115.981689 373.796722,114.961906 374.768829,114.353867 
	C375.740692,113.745964 376.720703,114.032921 377.437164,114.816673 
	C378.430908,115.903778 379.305847,117.099480 380.433563,118.549911 
z"/>
<path fill="#000000" opacity="1.000000" stroke="none" 
	d="
M287.366821,376.344116 
	C285.258087,376.978973 283.496185,377.096558 283.058502,374.886230 
	C282.740234,373.278717 284.276154,372.501221 285.529358,372.247711 
	C288.560028,371.634674 292.958710,368.043732 294.353424,371.706482 
	C295.854126,375.647552 290.005371,374.565582 287.366821,376.344116 
z"/>
<path fill="#000000" opacity="1.000000" stroke="none" 
	d="
M729.052612,371.767944 
	C730.518250,372.249878 731.644531,372.554535 732.694763,373.027985 
	C733.799255,373.526001 734.737915,374.304352 734.265320,375.707703 
	C733.816956,377.038727 732.605835,377.308441 731.419983,377.148407 
	C730.119690,376.972961 728.776794,376.707642 727.592407,376.172028 
	C725.686035,375.309998 722.055359,375.492798 723.046997,372.278442 
	C723.905884,369.494751 726.693237,371.332458 729.052612,371.767944 
z"/>
<path fill="#000000" opacity="1.000000" stroke="none" 
	d="
M736.556763,287.628418 
	C737.790039,287.474060 738.616272,287.257080 739.436279,287.278381 
	C740.947632,287.317596 742.677124,287.416168 742.916931,289.327026 
	C743.170593,291.347931 741.345520,291.704193 739.942322,291.974274 
	C738.326111,292.285278 736.634338,292.329071 734.980896,292.284210 
	C733.427124,292.242126 731.229004,292.762482 731.078979,290.361359 
	C730.936218,288.076904 733.069092,288.114563 734.657288,287.800323 
	C735.143188,287.704163 735.649780,287.712677 736.556763,287.628418 
z"/>
<path fill="#000000" opacity="1.000000" stroke="none" 
	d="
M285.277527,288.531982 
	C286.173981,292.402618 283.424530,292.454224 281.577728,291.839386 
	C279.041443,290.994995 273.968689,292.972809 274.351776,289.056885 
	C274.758728,284.897186 279.467316,287.530090 282.281372,287.260803 
	C283.156464,287.177063 284.106964,287.881561 285.277527,288.531982 
z"/>
<path fill="#000000" opacity="1.000000" stroke="none" 
	d="
M593.130737,514.627869 
	C595.288513,513.254395 596.581238,514.009460 597.231018,515.880310 
	C598.187805,518.635193 600.598145,521.201843 599.559082,524.230713 
	C598.969177,525.950439 596.874573,525.507263 596.005249,523.998901 
	C594.394165,521.203308 592.175781,518.535461 593.130737,514.627869 
z"/>
<path fill="#000000" opacity="1.000000" stroke="none" 
	d="
M553.012573,85.609161 
	C552.200134,87.383537 552.042419,89.652313 549.655640,88.760475 
	C547.908569,88.107674 548.117004,86.418427 548.457275,84.885239 
	C548.853271,83.100693 549.218750,81.309174 549.632996,79.528946 
	C549.956299,78.139214 550.604126,76.836723 552.256226,77.132492 
	C553.912476,77.429001 554.056763,78.879227 553.866760,80.289207 
	C553.645142,81.934669 553.364685,83.572220 553.012573,85.609161 
z"/>
<path fill="#000000" opacity="1.000000" stroke="none" 
	d="
M699.954712,189.189758 
	C702.209534,187.736786 704.156372,186.502243 706.164246,185.376617 
	C707.428223,184.667999 708.744629,184.575516 709.580444,186.049179 
	C710.326416,187.364487 709.418884,188.334152 708.496399,188.971939 
	C706.470581,190.372528 704.463257,192.026855 702.184753,192.778381 
	C699.214294,193.758102 698.034912,192.444458 699.954712,189.189758 
z"/>
<path fill="#000000" opacity="1.000000" stroke="none" 
	d="
M686.756836,461.368774 
	C683.897705,462.052460 677.665588,458.222992 677.033386,455.830750 
	C676.799683,454.946411 676.956238,454.217163 677.696289,453.659973 
	C678.423584,453.112457 679.346252,452.992920 680.002014,453.487274 
	C682.773804,455.576965 686.433228,456.895294 686.756836,461.368774 
z"/>
<path fill="#000000" opacity="1.000000" stroke="none" 
	d="
M465.200348,77.053001 
	C469.466034,79.443283 468.065979,83.698059 468.979736,87.140305 
	C469.097137,87.582611 468.153473,88.684479 467.541779,88.835732 
	C466.934479,88.985916 465.668427,88.492935 465.478973,87.987045 
	C464.155884,84.454102 461.921051,80.905327 465.200348,77.053001 
z"/>
<path fill="#000000" opacity="1.000000" stroke="none" 
	d="
M644.017456,127.140045 
	C645.427185,125.267830 646.600220,123.672150 647.857544,122.145920 
	C648.642273,121.193375 649.671936,120.592789 650.873230,121.405128 
	C651.969971,122.146790 652.353271,123.308685 651.562256,124.407898 
	C649.932556,126.672623 648.219849,128.888824 646.386536,130.989883 
	C645.729614,131.742737 644.600098,131.880402 643.723938,131.033279 
	C642.474670,129.825363 643.192688,128.627594 644.017456,127.140045 
z"/>
<path fill="#000000" opacity="1.000000" stroke="none" 
	d="
M295.775452,380.685089 
	C297.855743,381.414673 298.713318,382.790619 297.099640,383.999817 
	C294.470856,385.969727 291.283051,386.914825 287.969330,387.148834 
	C287.106110,387.209839 286.352814,386.663574 286.194977,385.759430 
	C286.001160,384.649048 286.689911,383.854797 287.591980,383.399414 
	C290.077667,382.144684 292.628418,381.035645 295.775452,380.685089 
z"/>
<path fill="#000000" opacity="1.000000" stroke="none" 
	d="
M409.343323,520.260498 
	C407.160553,521.012024 406.137848,520.362976 406.091919,518.374695 
	C406.084503,518.054993 406.165863,517.696960 406.316437,517.415588 
	C407.757141,514.723206 408.042755,511.258087 411.214996,509.728577 
	C411.955292,509.371643 413.153107,509.776337 413.235382,510.649689 
	C413.581787,514.328064 411.727905,517.259766 409.343323,520.260498 
z"/>
<path fill="#000000" opacity="1.000000" stroke="none" 
	d="
M423.212952,516.149292 
	C422.907562,519.216736 421.868134,521.641724 420.503906,523.906616 
	C419.882843,524.937622 418.791809,525.547607 417.522675,524.973450 
	C416.204224,524.376831 416.113495,523.146423 416.527069,522.011780 
	C417.315979,519.847229 418.052155,517.608154 419.237152,515.659607 
	C420.308350,513.898071 421.931885,513.011780 423.212952,516.149292 
z"/>
<path fill="#000000" opacity="1.000000" stroke="none" 
	d="
M275.317688,277.227722 
	C278.945618,274.704559 282.273773,276.439301 285.481476,277.390991 
	C287.247589,277.915009 287.402466,279.610107 285.713257,280.792236 
	C283.678833,282.215942 276.605988,280.013885 275.317688,277.227722 
z"/>
<path fill="#000000" opacity="1.000000" stroke="none" 
	d="
M636.069824,124.784454 
	C634.196289,119.947395 638.277466,117.866646 640.379639,114.897331 
	C640.835144,114.253853 641.959839,114.480438 642.646118,115.011673 
	C643.541077,115.704414 643.727051,116.809517 643.180298,117.668549 
	C641.383911,120.491180 640.311584,124.041115 636.069824,124.784454 
z"/>
<path fill="#000000" opacity="1.000000" stroke="none" 
	d="
M563.760376,87.364021 
	C562.944641,89.288635 562.798767,91.846375 560.334656,91.086716 
	C557.973816,90.358879 558.803650,88.038368 559.399109,86.428413 
	C560.275513,84.058281 559.457275,79.441521 563.200562,80.214561 
	C566.720459,80.941483 563.711365,84.637115 563.760376,87.364021 
z"/>
<path fill="#000000" opacity="1.000000" stroke="none" 
	d="
M607.354431,511.902893 
	C608.303955,514.033081 609.156006,515.808411 609.891846,517.630615 
	C610.355103,518.777649 610.306763,519.986450 609.089233,520.651794 
	C607.533997,521.501709 606.586609,520.438354 605.930298,519.245117 
	C604.902100,517.375916 603.945007,515.459106 603.098022,513.501770 
	C602.568909,512.279175 602.232849,510.757202 603.661133,509.982605 
	C605.282349,509.103363 606.453064,510.068298 607.354431,511.902893 
z"/>
<path fill="#000000" opacity="1.000000" stroke="none" 
	d="
M726.900879,383.115509 
	C728.914185,384.036224 730.978088,384.863159 729.660461,387.133453 
	C728.599609,388.961121 726.763611,387.927246 725.247131,387.333130 
	C724.484741,387.034485 723.681946,386.796051 722.984375,386.383453 
	C721.359741,385.422485 717.799194,385.740356 719.038513,382.684692 
	C720.090942,380.089844 722.717163,381.822601 724.673401,382.369415 
	C725.303894,382.545654 725.918823,382.777222 726.900879,383.115509 
z"/>
<path fill="#000000" opacity="1.000000" stroke="none" 
	d="
M709.298645,196.148102 
	C711.256104,195.385193 713.172424,193.754959 714.377686,196.149307 
	C715.585083,198.547653 712.993958,199.041046 711.690186,200.106415 
	C711.563477,200.209915 711.415283,200.311417 711.260742,200.353027 
	C708.950500,200.975189 706.266174,204.708313 704.460144,201.502579 
	C702.628296,198.250992 707.218445,197.947083 709.298645,196.148102 
z"/>
<path fill="#000000" opacity="1.000000" stroke="none" 
	d="
M730.126404,278.983154 
	C732.647278,276.299805 735.865295,276.958038 738.719238,276.335999 
	C740.097473,276.035645 741.467041,276.477844 741.712280,278.160919 
	C741.922241,279.602051 740.826599,280.407745 739.658020,280.505188 
	C736.384155,280.778046 732.731934,283.691498 730.126404,278.983154 
z"/>
<path fill="#000000" opacity="1.000000" stroke="none" 
	d="
M457.061646,90.819839 
	C452.337524,88.990479 453.179535,84.814713 452.672089,81.259727 
	C452.556427,80.449295 453.409149,79.845428 454.343170,79.737709 
	C455.495087,79.604851 456.487244,80.146660 456.654968,81.162743 
	C457.172821,84.299446 459.492249,87.316765 457.061646,90.819839 
z"/>
<path fill="#000000" opacity="1.000000" stroke="none" 
	d="
M309.201660,185.148468 
	C312.287048,185.965790 314.731781,187.395279 316.846741,189.268234 
	C318.617584,190.836456 318.023621,192.278687 315.923523,192.907104 
	C314.021820,193.476166 307.663605,188.985199 307.414307,186.997910 
	C307.293732,186.036774 308.077087,185.566895 309.201660,185.148468 
z"/>
<path fill="#000000" opacity="1.000000" stroke="none" 
	d="
M679.487549,468.156433 
	C677.969360,471.877930 675.946045,470.404968 674.328247,468.676758 
	C672.593750,466.823761 668.236938,465.107544 670.658447,462.351318 
	C673.359558,459.276917 675.134338,463.812866 677.169861,465.250854 
	C678.071716,465.887970 678.663452,466.964020 679.487549,468.156433 
z"/>
<path fill="#000000" opacity="1.000000" stroke="none" 
	d="
M340.810181,468.961243 
	C339.441437,470.079163 338.226562,470.782074 337.084351,469.474518 
	C336.001495,468.234924 336.556000,466.751312 337.625031,465.987854 
	C340.105286,464.216522 342.244324,458.767151 345.054810,461.397278 
	C348.338928,464.470703 342.451965,466.139343 340.810181,468.961243 
z"/>
<path fill="#000000" opacity="1.000000" stroke="none" 
	d="
M515.981934,540.597412 
	C515.434814,542.383789 514.643921,543.688965 513.098389,542.791992 
	C510.791779,541.453247 511.777008,538.960327 511.734192,536.957031 
	C511.694672,535.110413 510.853577,532.744324 513.057495,531.605774 
	C514.992249,530.606262 515.783752,532.300842 515.955566,533.785461 
	C516.198914,535.888611 516.048340,538.037354 515.981934,540.597412 
z"/>
<path fill="#000000" opacity="1.000000" stroke="none" 
	d="
M309.466370,197.512024 
	C311.080170,198.511826 312.666168,199.364075 311.727783,201.151337 
	C310.803558,202.911606 309.176056,202.199539 307.796967,201.563049 
	C306.290680,200.867859 304.787994,200.151672 303.345459,199.335526 
	C301.969421,198.557022 300.726013,197.381500 301.677795,195.743484 
	C302.626526,194.110764 304.263550,194.654678 305.656799,195.365967 
	C306.838318,195.969208 307.971436,196.667313 309.466370,197.512024 
z"/>
<path fill="#000000" opacity="1.000000" stroke="none" 
	d="
M501.067078,532.779419 
	C503.604370,530.296692 504.858246,531.606018 505.211945,533.988098 
	C505.521362,536.072021 505.353546,538.246765 505.216705,540.369873 
	C505.127777,541.750061 504.514526,543.035583 502.825409,542.911682 
	C501.151672,542.789062 500.780823,541.432129 500.770355,540.056274 
	C500.752991,537.763062 500.857788,535.468994 501.067078,532.779419 
z"/>
<path fill="#000000" opacity="1.000000" stroke="none" 
	d="
M442.547577,277.877869 
	C442.927612,279.552246 443.127289,280.865509 443.393463,282.165192 
	C444.063263,285.435516 444.000061,289.467133 450.020691,287.154175 
	C448.455078,290.994904 446.129974,291.395660 443.581238,291.330322 
	C440.745361,291.257660 438.763702,289.751587 437.977448,287.142426 
	C437.068542,284.126434 436.545685,280.992065 435.897583,277.900208 
	C435.401184,275.531891 434.457214,273.456940 432.306580,272.146942 
	C428.195099,269.642548 424.926056,271.203461 425.091370,275.944763 
	C425.258362,280.732941 423.188904,285.930054 427.825775,290.317657 
	C423.353424,291.815338 419.544647,291.306976 415.600067,290.733246 
	C419.037354,283.672150 419.101196,253.671036 414.899597,247.761963 
	C423.838593,248.300522 432.053955,245.670456 439.674408,250.310303 
	C445.533173,253.877502 445.774353,262.080139 440.431427,266.502258 
	C439.162994,267.552063 437.704315,268.372009 435.966431,269.545319 
	C438.480194,272.033722 441.442719,274.030304 442.547577,277.877869 
M425.003265,253.925903 
	C424.943665,257.733246 424.979797,261.545349 424.792389,265.346375 
	C424.656647,268.099762 425.829590,268.840698 428.389740,268.457428 
	C435.222443,267.434601 438.908875,261.397705 436.487457,254.865067 
	C435.395142,251.918182 433.017242,250.520569 429.952118,250.354630 
	C427.811920,250.238785 425.440308,249.892365 425.003265,253.925903 
z"/>
<path fill="#000000" opacity="1.000000" stroke="none" 
	d="
M522.432800,279.050781 
	C524.184021,282.177277 523.152893,285.358032 523.286682,288.465118 
	C523.340637,289.718475 522.652344,290.932861 521.309937,290.944519 
	C512.253296,291.023193 503.195740,290.985565 493.693207,290.985565 
	C497.884216,284.473877 497.749542,252.953369 493.660065,248.512253 
	C496.414093,247.017349 499.251129,247.847748 501.906860,247.767776 
	C506.900909,247.617371 511.920959,247.987167 516.895813,247.643250 
	C521.717896,247.309875 523.743591,249.114960 523.177612,253.904404 
	C522.957825,255.765060 523.725464,257.824982 522.265442,259.493927 
	C521.710266,259.243622 521.231140,259.172516 521.178406,258.982880 
	C518.856995,250.632767 514.551147,247.609756 506.110199,250.595566 
	C500.079193,252.728912 504.320648,259.043945 503.402954,263.374908 
	C502.792328,266.256622 504.939270,266.881409 507.443970,267.004028 
	C510.795471,267.168182 512.751709,265.690857 513.352356,262.166656 
	C515.667603,265.257843 515.909851,269.208893 514.220398,274.788666 
	C512.299561,272.491364 511.264832,269.442749 507.760254,269.425079 
	C504.990051,269.411163 503.213074,269.996887 503.284912,273.219727 
	C503.370300,277.049927 503.349701,280.884430 503.280579,284.715393 
	C503.232178,287.397217 504.326080,288.776459 507.118866,288.680969 
	C509.115753,288.612701 511.121124,288.755310 513.115479,288.657562 
	C517.493530,288.442963 520.379761,286.512024 520.753296,281.781769 
	C520.838623,280.700531 520.491089,279.330444 522.432800,279.050781 
z"/>
<path fill="#000000" opacity="1.000000" stroke="none" 
	d="
M570.690063,250.658722 
	C577.258240,245.978745 583.748779,246.100311 590.221985,249.785873 
	C593.140991,251.447815 594.907471,254.043182 594.300781,257.674713 
	C593.950623,259.771149 592.778381,261.189056 590.556458,260.623047 
	C588.480530,260.094208 587.413757,258.388916 588.539612,256.387543 
	C591.076294,251.878372 587.618835,251.242706 584.770447,250.438568 
	C583.215088,249.999481 581.462341,250.133118 579.806580,250.202103 
	C576.207703,250.352036 573.135742,251.501526 572.405090,255.524384 
	C571.686340,259.481445 574.021240,261.794678 577.305542,263.273041 
	C580.490540,264.706726 583.834473,265.797852 586.978027,267.310669 
	C593.080566,270.247437 596.093323,275.366150 595.166321,280.779907 
	C594.233459,286.227570 588.550415,290.826111 582.109375,291.289337 
	C577.334229,291.632782 572.731445,291.149933 569.040588,287.678162 
	C567.177307,285.925446 565.779663,283.775574 566.261292,281.053833 
	C566.608459,279.091644 567.763611,277.502899 570.017578,277.940796 
	C572.225403,278.369720 573.140625,280.103851 572.106445,282.088989 
	C570.057129,286.022614 572.607849,287.223267 575.485840,288.143890 
	C578.404236,289.077454 581.371948,288.977142 584.301941,287.911194 
	C587.474609,286.756897 589.177795,284.393250 589.520325,281.204620 
	C589.857788,278.062042 588.201111,275.711761 585.483948,274.316071 
	C581.492065,272.265594 577.258423,270.660126 573.368225,268.443115 
	C566.120300,264.312500 565.080078,257.539215 570.690063,250.658722 
z"/>
<path fill="#000000" opacity="1.000000" stroke="none" 
	d="
M363.169312,253.356888 
	C359.267639,249.058990 354.545898,249.548065 350.048431,250.887863 
	C345.624298,252.205795 344.575989,257.672760 347.797699,261.042725 
	C349.054535,262.357391 350.576172,263.321411 352.363464,263.983521 
	C355.323090,265.079834 358.221252,266.381439 361.045227,267.796295 
	C366.432190,270.495209 369.579376,275.360779 369.083618,279.919617 
	C368.527679,285.032074 364.159454,289.487152 358.121185,290.848877 
	C353.250641,291.947205 348.455811,291.636230 344.174194,288.829865 
	C341.222534,286.895203 339.309418,284.145782 340.174255,280.403046 
	C340.615326,278.494171 341.935852,277.009277 344.215759,277.837433 
	C346.109375,278.525269 346.778442,280.262146 345.833710,281.909302 
	C343.161133,286.569000 346.608459,287.427399 349.705963,288.261597 
	C353.172028,289.195007 356.661835,289.078644 359.770813,286.913910 
	C364.109314,283.893005 364.271576,277.492188 359.784241,274.718842 
	C356.558746,272.725342 352.885315,271.453339 349.401855,269.881348 
	C342.581482,266.803619 339.751343,262.256165 340.998413,256.341888 
	C342.120087,251.022354 348.261932,246.792221 354.832581,247.102264 
	C359.406342,247.318085 363.920197,248.156570 366.570892,252.507141 
	C367.856995,254.618027 369.057892,257.035492 367.041229,259.433990 
	C365.953430,260.727722 364.483276,261.100586 363.055908,259.981995 
	C360.316376,257.835114 363.060455,255.786514 363.169312,253.356888 
z"/>
<path fill="#000000" opacity="1.000000" stroke="none" 
	d="
M601.500488,291.254730 
	C600.114624,291.150238 599.065491,291.167847 598.581604,289.552917 
	C602.062073,288.481720 603.097717,285.346649 604.294312,282.288757 
	C607.985107,272.857666 611.711060,263.440247 615.447632,254.027176 
	C616.338989,251.781494 616.822327,249.230362 619.189453,248.034561 
	C621.547485,248.895630 621.559509,251.004578 622.191467,252.605621 
	C626.091370,262.485229 629.862976,272.415436 633.706360,282.317535 
	C634.892944,285.374573 635.569885,288.862427 639.971313,289.890015 
	C634.741699,291.634827 629.879578,291.209442 623.159485,290.921478 
	C629.770691,287.251648 626.621765,283.619293 625.472900,280.224274 
	C624.139343,276.283203 620.605957,277.623871 617.789124,277.438904 
	C612.797058,277.111145 608.186340,277.062897 606.635986,283.615479 
	C605.966797,286.443756 605.081909,288.518829 608.715515,289.678925 
	C606.544006,292.174561 604.064636,290.955505 601.500488,291.254730 
M621.977112,274.142181 
	C622.090332,268.515991 618.985474,264.055237 616.112244,259.159912 
	C614.313049,264.140594 612.513916,269.121307 610.576233,274.485565 
	C614.797852,275.104614 618.072632,275.124512 621.977112,274.142181 
z"/>
<path fill="#000000" opacity="1.000000" stroke="none" 
	d="
M520.844238,348.987671 
	C520.859314,342.327393 520.835938,336.163666 520.924438,330.001526 
	C520.952148,328.072052 520.612122,325.561768 523.280518,325.171051 
	C525.575684,324.835052 526.103638,327.152222 526.852478,328.747131 
	C530.521973,336.562592 534.125549,344.409058 538.752380,352.151062 
	C538.752380,348.630219 538.724243,345.109131 538.759827,341.588623 
	C538.800171,337.592377 538.808899,333.592194 539.011658,329.602875 
	C539.098083,327.902222 538.770691,325.266479 541.306763,325.389679 
	C543.892090,325.515259 543.135315,328.140167 543.148438,329.812164 
	C543.224182,339.473267 543.227173,349.135376 543.173462,358.796692 
	C543.162842,360.699371 543.665833,363.225159 541.005249,363.741760 
	C538.371521,364.253113 537.894714,361.740234 537.089600,359.996582 
	C533.359497,351.917755 529.678894,343.816040 525.483215,334.634308 
	C524.466248,345.079102 526.234436,354.483643 523.531189,363.635406 
	C519.262207,359.447723 521.553467,354.192627 520.844238,348.987671 
z"/>
<path fill="#000000" opacity="1.000000" stroke="none" 
	d="
M403.172668,284.039825 
	C405.577454,279.976471 405.739197,275.863190 405.662903,271.664276 
	C405.569214,266.509521 405.596893,261.351135 405.665131,256.195496 
	C405.700500,253.522202 405.790100,250.892532 402.967529,248.904160 
	C405.567932,247.068283 407.763885,247.937592 410.812531,247.948929 
	C407.511658,251.977463 408.348328,256.068024 408.207794,260.042206 
	C407.967468,266.836914 409.005676,273.694885 407.342194,280.420074 
	C405.440125,288.110138 400.898926,291.374603 392.323883,291.320190 
	C384.235626,291.268860 379.045105,287.488983 377.508026,280.020203 
	C375.918732,272.297699 377.106049,264.430695 376.813354,256.633942 
	C376.709595,253.870239 377.222931,250.999390 374.289215,248.612167 
	C378.712067,247.282761 382.362640,247.524963 386.956848,248.341293 
	C382.824829,251.299057 383.306427,255.086685 383.339478,258.793518 
	C383.391418,264.614838 383.258545,270.439026 383.385803,276.258026 
	C383.488037,280.934387 384.622437,285.393402 389.359711,287.437653 
	C394.454285,289.636200 399.118866,288.445740 403.172668,284.039825 
z"/>
<path fill="#000000" opacity="1.000000" stroke="none" 
	d="
M476.189056,272.274048 
	C478.466858,266.507782 480.479950,261.040222 482.739777,255.676636 
	C483.863586,253.009369 484.905884,250.603699 480.725342,248.628021 
	C484.689087,247.373566 487.644165,247.375137 491.181976,248.253021 
	C482.952484,255.110413 482.719696,265.374786 478.529816,273.742645 
	C475.749115,279.296143 473.793671,285.262909 471.532745,290.885620 
	C468.335297,290.426849 468.239929,288.326080 467.619873,286.718445 
	C463.789612,276.787048 460.009552,266.836273 456.208588,256.893585 
	C455.042389,253.843048 454.545135,250.337921 450.438568,248.938553 
	C455.358459,247.422272 459.863647,247.479034 466.195801,248.425552 
	C461.505402,250.509079 461.898224,252.623978 463.030426,255.391357 
	C466.296722,263.375000 469.224213,271.497192 472.731415,280.742432 
	C474.119446,277.318756 475.072815,274.967224 476.189056,272.274048 
z"/>
<path fill="#000000" opacity="1.000000" stroke="none" 
	d="
M665.007874,260.064514 
	C666.294800,255.941528 670.515198,253.135941 668.423706,248.405426 
	C670.945984,247.325653 673.139282,247.697968 676.333069,248.191895 
	C669.526367,253.915985 667.061829,261.409119 663.910828,268.336945 
	C660.708557,275.377563 661.028076,282.944061 664.106018,290.567139 
	C660.410217,291.678589 656.585754,291.312805 652.638672,290.750397 
	C655.907410,283.093628 656.420654,275.569000 652.487061,268.382416 
	C648.867493,261.769623 646.933960,254.118225 640.336243,248.668365 
	C644.785828,247.070404 648.776794,247.796341 652.757446,248.015381 
	C650.904175,256.498932 657.629822,261.273102 660.135376,268.187408 
	C662.733154,265.624023 663.519287,262.848145 665.007874,260.064514 
z"/>
<path fill="#000000" opacity="1.000000" stroke="none" 
	d="
M540.330566,249.355225 
	C539.695862,250.550232 539.149780,251.455948 539.670044,252.480225 
	C542.199341,257.460327 544.771423,262.418732 547.949280,268.590973 
	C551.427917,261.097565 556.600830,255.922012 556.185059,248.056259 
	C558.532166,247.684692 560.891418,247.257629 563.488342,248.580673 
	C557.284912,254.116180 554.922485,261.637299 551.393188,268.423309 
	C547.806213,275.320221 548.391357,286.089325 552.124634,289.834625 
	C549.060669,291.600037 545.477112,291.756012 540.616089,290.335602 
	C547.293823,279.268158 538.709534,261.879364 528.036255,248.370148 
	C532.524170,247.759613 536.445374,246.631653 540.330566,249.355225 
z"/>
<path fill="#000000" opacity="1.000000" stroke="none" 
	d="
M641.973938,331.474060 
	C644.032104,343.569153 641.625854,347.322113 630.221069,349.647949 
	C627.197266,350.264648 625.876892,351.532379 626.111206,354.616699 
	C626.274292,356.764130 626.178101,358.936615 626.103638,361.094666 
	C626.062927,362.273315 625.835388,363.599731 624.357605,363.702209 
	C622.621033,363.822693 622.092224,362.426819 622.040161,361.052551 
	C621.908020,357.567169 621.916138,354.075867 621.903503,350.586823 
	C621.878784,343.772217 622.042419,336.951843 621.806946,330.144989 
	C621.662964,325.980713 623.302734,324.579163 627.371704,324.692810 
	C633.163879,324.854584 638.843018,324.816742 641.973938,331.474060 
M626.184692,331.964691 
	C626.162354,334.615845 626.004639,337.275055 626.161987,339.915527 
	C626.280762,341.908325 625.200134,344.664398 628.007629,345.496094 
	C630.568359,346.254669 633.298950,345.971283 635.613708,344.279480 
	C639.333374,341.560883 639.992737,334.246063 636.852112,330.841583 
	C633.721619,327.448151 628.274841,327.579620 626.184692,331.964691 
z"/>
<path fill="#000000" opacity="1.000000" stroke="none" 
	d="
M613.136902,355.482452 
	C612.353760,363.135376 606.771851,364.801086 600.645508,364.136078 
	C595.152954,363.539795 592.750793,360.145569 592.722839,353.404846 
	C592.696594,347.076691 592.632690,340.746765 592.747314,334.420532 
	C592.864990,327.929047 595.907288,324.906433 602.206543,324.719177 
	C609.222656,324.510559 612.861389,327.396301 613.129944,334.062256 
	C613.411133,341.043854 613.183105,348.045959 613.136902,355.482452 
M603.338562,360.700073 
	C608.023926,360.144348 609.787231,357.226837 609.746948,352.816620 
	C609.695557,347.184692 609.744324,341.550873 609.612976,335.921051 
	C609.499939,331.075867 607.045471,328.330841 603.006104,328.235413 
	C598.726562,328.134338 596.353333,330.536346 596.223328,335.580109 
	C596.069702,341.539459 596.161560,347.506012 596.198242,353.469147 
	C596.224243,357.690826 597.958069,360.480865 603.338562,360.700073 
z"/>
<path fill="#000000" opacity="1.000000" stroke="none" 
	d="
M491.802307,349.883484 
	C491.799255,344.404144 491.633850,339.401703 491.827911,334.413208 
	C492.093201,327.594666 495.779633,324.518219 503.033081,324.705475 
	C509.324097,324.867889 512.232300,327.855865 512.311401,334.484650 
	C512.390930,341.145294 512.356567,347.808044 512.302673,354.469299 
	C512.250366,360.934937 509.368134,363.919067 502.983002,364.262238 
	C496.590332,364.605835 492.658691,361.474243 491.942322,355.356323 
	C491.749573,353.710114 491.839813,352.030731 491.802307,349.883484 
M508.887543,348.396240 
	C508.835052,343.588440 508.980560,338.767273 508.657990,333.977661 
	C508.455200,330.967041 506.827179,328.655823 503.452606,328.262024 
	C500.101868,327.871002 497.195435,328.947052 496.393646,332.322174 
	C494.500427,340.291809 494.707977,348.426727 496.172577,356.423584 
	C496.781097,359.746094 499.718201,361.021759 503.114197,360.677856 
	C506.637665,360.321045 508.431946,358.242249 508.720734,354.821930 
	C508.873871,353.007904 508.840057,351.178131 508.887543,348.396240 
z"/>
<path fill="#000000" opacity="1.000000" stroke="none" 
	d="
M393.825928,350.811584 
	C394.868652,361.185303 387.847504,367.027039 379.438873,363.288452 
	C374.929291,361.283447 373.268066,356.801056 375.452789,352.423981 
	C377.651489,352.809174 377.547821,354.831451 377.926971,356.274841 
	C378.662140,359.073547 380.249084,360.578217 383.130249,360.782166 
	C385.757233,360.968140 388.196716,360.694977 389.576569,358.053864 
	C390.986847,355.354462 391.174133,352.720123 389.193848,350.096252 
	C386.829315,346.963287 383.097229,346.160614 379.927673,344.416595 
	C374.823212,341.607910 372.889526,338.065277 373.724609,332.600006 
	C374.575256,327.032532 379.951019,323.703613 386.197693,324.876129 
	C391.526367,325.876312 395.168274,331.317413 393.950867,336.480408 
	C393.736145,337.391052 393.143127,337.876312 392.086365,337.854462 
	C390.064514,337.114594 390.664368,335.096527 390.277832,333.626678 
	C389.421295,330.369629 387.748810,328.320190 384.125671,328.177155 
	C381.098816,328.057617 378.961151,329.096497 377.884644,332.031769 
	C376.618408,335.484436 377.488708,338.279724 380.537994,340.281097 
	C382.197052,341.369934 383.987457,342.268982 385.760254,343.171875 
	C389.078522,344.861877 392.147919,346.797821 393.825928,350.811584 
z"/>
<path fill="#000000" opacity="1.000000" stroke="none" 
	d="
M437.252380,332.881165 
	C439.625366,343.271729 443.472565,352.919617 444.884125,363.989227 
	C441.018097,362.475372 441.009460,359.736633 440.637451,357.492432 
	C439.632111,351.427826 434.931366,353.437256 431.295074,352.853882 
	C427.329010,352.217590 427.072327,355.020142 426.442383,357.599945 
	C425.886322,359.877258 426.047455,362.580109 421.723206,364.161835 
	C424.888000,350.198273 428.181152,337.423859 432.815887,324.507568 
	C436.467926,326.840424 436.028046,330.051086 437.252380,332.881165 
M432.098938,335.857880 
	C431.476898,340.157501 429.098480,344.143097 429.310211,348.796600 
	C432.379913,348.990753 434.960297,349.452148 437.721649,348.484161 
	C437.183228,342.609375 435.177765,337.310333 433.666931,330.623138 
	C432.943085,332.973389 432.606079,334.067535 432.098938,335.857880 
z"/>
<path fill="#000000" opacity="1.000000" stroke="none" 
	d="
M460.480530,338.078796 
	C461.973602,334.567596 463.296906,331.345917 464.691071,328.155182 
	C465.488739,326.329559 466.281342,324.369080 469.423615,325.448364 
	C467.978058,332.134521 464.284973,337.862274 461.856476,344.076752 
	C459.431854,350.281250 462.594513,357.384705 459.049988,363.580475 
	C455.155731,357.454498 458.620178,350.348816 456.191895,344.184052 
	C453.748840,337.981842 450.918549,331.932159 448.223267,325.736053 
	C451.687225,324.353058 452.513184,326.214783 453.299072,328.105743 
	C454.699127,331.474457 456.065674,334.857178 457.476685,338.221222 
	C458.296875,340.176697 459.259277,340.598206 460.480530,338.078796 
z"/>
<path fill="#000000" opacity="1.000000" stroke="none" 
	d="
M414.685272,324.768219 
	C415.970581,324.816498 416.812805,324.791443 417.630249,324.921844 
	C418.890503,325.122986 419.934601,325.708527 419.618896,327.204437 
	C419.362396,328.419739 418.219849,328.650543 417.233307,328.477844 
	C412.220490,327.600281 411.873413,330.560089 411.956360,334.383209 
	C412.119019,341.875946 412.052765,349.374908 411.987885,356.870453 
	C411.971313,358.785065 412.430328,360.943451 410.357361,362.375793 
	C407.521820,361.839264 408.000732,359.469421 407.964569,357.649841 
	C407.815582,350.156189 407.633453,342.653198 407.861755,335.165802 
	C407.997070,330.728149 407.464569,327.530670 401.919006,328.151703 
	C401.390717,328.210846 400.793152,327.651031 400.198944,327.364716 
	C401.937225,324.774231 401.937225,324.774231 414.685272,324.768219 
z"/>
<path fill="#000000" opacity="1.000000" stroke="none" 
	d="
M578.156494,337.090240 
	C577.792664,345.798126 578.697815,354.120544 577.388123,363.221375 
	C573.821716,360.935181 574.170410,358.640472 574.136841,356.594025 
	C574.019531,349.440002 573.841675,342.280396 574.013428,335.130737 
	C574.113220,330.974609 573.790833,327.716644 568.387634,328.229187 
	C567.577209,328.306061 566.780579,327.825470 566.597473,326.826477 
	C569.404785,324.027832 581.814819,323.815948 586.774719,327.276093 
	C580.475403,327.870239 576.496582,330.139313 578.156494,337.090240 
z"/>
</svg>